<?xml version="1.0" encoding="UTF-8" standalone="no"?>
<!DOCTYPE svg PUBLIC "-//W3C//DTD SVG 1.1//EN" "http://www.w3.org/Graphics/SVG/1.1/DTD/svg11.dtd">
<svg width="100%" height="100%" viewBox="0 0 2500 2500" version="1.1" xmlns="http://www.w3.org/2000/svg" xmlns:xlink="http://www.w3.org/1999/xlink" xml:space="preserve" xmlns:serif="http://www.serif.com/" style="fill-rule:evenodd;clip-rule:evenodd;stroke-linejoin:round;stroke-miterlimit:2;">
    <g id="Layer2">
        <rect x="-26.612" y="-31.443" width="2541.44" height="2548.65" style="fill:rgb(255,234,192);"/>
    </g>
    <g transform="matrix(1.67941,0,0,1.67941,12.658,388.945)">
        <path d="M694.904,91.666C894.949,91.666 1057.36,254.077 1057.36,454.122C1057.36,535.67 1030.37,610.964 984.846,671.552C887.042,693.475 505.787,696.283 425.349,696.332C367.604,632.119 332.448,547.194 332.448,454.122C332.448,254.077 494.859,91.666 694.904,91.666Z" style="fill:rgb(58,31,2);"/>
    </g>
    <g transform="matrix(1.67941,0,0,1.67941,12.658,388.945)">
        <circle cx="694.904" cy="454.122" r="342.656" style="fill:none;"/>
        <clipPath id="_clip1">
            <circle cx="694.904" cy="454.122" r="342.656"/>
        </clipPath>
        <g clip-path="url(#_clip1)">
            <g transform="matrix(1,0,0,1,-22.491,2.64599)">
                <g transform="matrix(1,0,0,1.09524,0,-26.6377)">
                    <rect x="361.217" y="117.629" width="714.418" height="162.067" style="fill:rgb(238,155,0);"/>
                </g>
                <rect x="356.807" y="248.826" width="718.828" height="106.942" style="fill:rgb(202,103,2);"/>
                <rect x="356.807" y="335.923" width="719.931" height="124.582" style="fill:rgb(187,62,3);"/>
                <rect x="353.499" y="414.201" width="728.751" height="159.862" style="fill:rgb(70,110,82);"/>
            </g>
        </g>
    </g>
    <g id="Layer1" transform="matrix(1.67941,0,0,1.67941,-31.1135,393.389)">
        <g id="Mountain" transform="matrix(1,0,0,1,3.57268,0)">
            <path d="M316.527,570.546L380.031,484.551L459.411,395.91L470.841,389.725L545.218,309.351C545.218,309.351 565.667,301.113 571.872,302.309C576.631,303.227 582.45,316.53 582.45,316.53C601.549,293.538 684.157,187.179 684.157,187.179L718.116,189.841L745.633,215.217C756.941,227.257 767.179,240.796 776.02,256.289L820.589,316.53C820.589,316.53 830.072,302.797 839.609,288.985C844.121,282.45 851.481,278.461 859.419,278.249C867.358,278.036 874.921,281.625 879.776,287.908C906.349,322.297 948.92,377.388 948.92,377.388C989.512,389.21 1028.05,447.838 1071.96,488.52L1167.43,586.863L321.819,600.975L316.527,570.546Z" style="fill:rgb(58,31,2);"/>
            <path d="M450.127,455.666C452.284,449.923 480.425,413.815 513.905,377.191C530.566,356.938 542.412,332.214 559.666,321.591C563.877,322.392 566.016,324.643 566.281,328.206C553.929,344.349 546.206,363.577 537.616,382.228C524.512,414.981 495.889,439.034 456.741,457.186L450.127,455.666Z" style="fill:rgb(175,109,19);"/>
            <path d="M576.395,347.137C575.7,358.955 575.201,370.624 580.731,377.773L613.678,342.513L584.488,389.911L577.551,405.518L574.372,426.905C594.239,410.366 610.189,387.953 622.348,359.854L655.585,313.612L635.643,383.264C634.903,391.173 636.961,393.178 643.157,386.443C664.077,357.505 682.449,326.655 697.203,293.092C706.074,270.989 710.972,252.575 709.052,240.492C700.466,242.171 684.97,276.564 672.348,283.844C682.377,259.085 691.894,234.326 700.382,209.567C700.158,204.259 696.656,204.278 690.267,208.989C646.851,253.947 611.93,300.604 576.395,347.137Z" style="fill:rgb(175,109,19);"/>
            <path d="M730.439,311.011L736.22,308.41L736.22,334.999L721.769,362.166L715.989,362.166L718.59,339.623L730.439,311.011Z" style="fill:rgb(175,109,19);"/>
            <path d="M643.157,433.263C648.745,435.612 654.333,431.782 659.92,422.57L675.527,404.073L682.752,380.374L678.128,373.438L651.25,406.674L643.157,433.263Z" style="fill:rgb(175,109,19);"/>
            <path d="M718.879,439.911C728.316,442.044 749.051,431.996 765.988,424.593C789.925,414.314 813.938,404.568 837.085,388.755C843.198,381.442 847.254,373.718 849.513,365.634C850.755,360.512 848.752,359.1 844.6,360.143L817.432,376.039C833.286,358.698 849.347,341.357 860.495,324.016C865.099,315.585 862.346,310.097 851.536,307.832C804.027,341.989 764.167,404.006 718.879,439.911Z" style="fill:rgb(175,109,19);"/>
            <path d="M744.601,474.881C751.621,468.33 760.41,461.779 769.745,455.228C776.617,444.727 785.416,437.117 796.912,433.552C800.952,435.775 802.699,440.289 802.115,447.136C794.862,467.238 782.208,472.336 768.011,473.147C758.462,475.82 750.296,476.833 744.601,474.881Z" style="fill:rgb(70,110,82);"/>
            <path d="M874.079,385.865C878.412,385.984 881.114,388.059 881.593,392.802C879.737,402.875 878.459,417.442 877.469,435.915C877.02,444.316 874.342,453.229 873.501,463.321C862.739,464.073 857.962,458.041 858.761,445.691L856.407,442.404L851.536,443.09L846.912,450.604C839.012,458.868 831.112,462.861 823.213,464.188C819.375,463.685 818.668,459.008 819.455,452.338C827.256,445.129 833.716,436.042 837.663,423.437C848.284,408.637 860.375,396.041 874.079,385.865Z" style="fill:rgb(70,110,82);"/>
            <path d="M918.876,434.13C921.263,429.588 924.87,425.86 929.569,422.859C936.543,431.203 935.563,449.234 939.685,458.697L936.506,462.454C929.396,461.005 924.444,456.966 921.188,450.893C918.578,445.674 917.633,440.121 918.876,434.13Z" style="fill:rgb(70,110,82);"/>
            <path d="M428.132,494.245C426.881,490.331 431.274,484.3 436.224,478.06C443.585,471.112 450.25,467.183 455.299,470.257C449.491,481.861 435.674,497.573 428.132,494.245Z" style="fill:rgb(70,110,82);"/>
            <path d="M529.864,463.321C541.056,458.537 551.427,452.112 561.078,444.246L563.39,450.315C554.072,465.643 538.989,476.028 518.882,482.107C506.993,485.672 502.64,480.372 503.853,468.523L481.888,487.02C474.747,492.244 469.954,493.164 467.437,489.91C466.249,484.173 474.301,475.355 482.466,466.5L522.061,430.951C525.252,422.172 531.586,415.838 541.714,412.454C545.261,418.501 542.423,423.271 538.246,427.772L529.864,463.321Z" style="fill:rgb(70,110,82);"/>
            <path d="M572.06,472.569C581.305,455.149 595.281,439.798 616.857,427.772C619.955,450.179 613.085,466.155 592.291,473.147L573.505,479.216C571.115,477.764 570.597,475.563 572.06,472.569Z" style="fill:rgb(70,110,82);"/>
        </g>
        <g id="Oat-Stalks" serif:id="Oat Stalks" transform="matrix(1,0,0,1,3.57268,0)">
            <path d="M1285.55,257.26C1265.22,263.49 1208.52,274.26 1168.46,217.859C1187.75,200.814 1209.85,203.475 1229.67,212.838C1254.44,224.541 1275.92,246.472 1285.55,257.26Z" style="fill:rgb(175,109,19);"/>
            <g transform="matrix(0.0256132,0.999672,-0.999672,0.0256132,1368.3,-891.008)">
                <path d="M1154.13,99.962C1154.13,99.962 1190.53,187.844 1105.5,240.818C1103.15,242.278 1100.11,241.911 1098.18,239.936C1073.85,215.023 1076.78,186.668 1089.43,161.57C1107.33,126.066 1145.15,97.509 1145.15,97.509C1146.61,96.414 1148.49,96.054 1150.24,96.534C1152,97.014 1153.43,98.28 1154.13,99.962ZM1145.77,112.137C1134.74,121.49 1112.27,142.398 1099.93,166.863C1090.07,186.436 1086.84,208.458 1103.38,228.18C1160.79,189.583 1151.48,132.622 1145.77,112.137Z" style="fill:rgb(58,31,2);"/>
            </g>
            <path d="M1261.08,379.72C1240.11,376.203 1184.57,360.486 1173.95,292.128C1198.83,285.506 1217.41,297.765 1230.95,315.001C1247.88,336.545 1257.28,365.764 1261.08,379.72Z" style="fill:rgb(175,109,19);"/>
            <g transform="matrix(-0.424014,0.905656,-0.905656,-0.424014,1848.46,-610.407)">
                <path d="M1154.13,99.962C1154.13,99.962 1190.53,187.844 1105.5,240.818C1103.15,242.278 1100.11,241.911 1098.18,239.936C1073.85,215.023 1076.78,186.668 1089.43,161.57C1107.33,126.066 1145.15,97.509 1145.15,97.509C1146.61,96.414 1148.49,96.054 1150.24,96.534C1152,97.014 1153.43,98.28 1154.13,99.962ZM1145.77,112.137C1134.74,121.49 1112.27,142.398 1099.93,166.863C1090.07,186.436 1086.84,208.458 1103.38,228.18C1160.79,189.583 1151.48,132.622 1145.77,112.137Z" style="fill:rgb(58,31,2);"/>
            </g>
            <path d="M1192.6,470.714C1174.3,459.886 1128.13,425.24 1142.83,357.641C1168.42,360.413 1181.34,378.536 1187.78,399.489C1195.82,425.681 1194.08,456.327 1192.6,470.714Z" style="fill:rgb(175,109,19);"/>
            <g transform="matrix(-0.721471,0.692445,-0.692445,-0.721471,2096.89,-241.767)">
                <path d="M1154.13,99.962C1154.13,99.962 1190.53,187.844 1105.5,240.818C1103.15,242.278 1100.11,241.911 1098.18,239.936C1073.85,215.023 1076.78,186.668 1089.43,161.57C1107.33,126.066 1145.15,97.509 1145.15,97.509C1146.61,96.414 1148.49,96.054 1150.24,96.534C1152,97.014 1153.43,98.28 1154.13,99.962ZM1145.77,112.137C1134.74,121.49 1112.27,142.398 1099.93,166.863C1090.07,186.436 1086.84,208.458 1103.38,228.18C1160.79,189.583 1151.48,132.622 1145.77,112.137Z" style="fill:rgb(58,31,2);"/>
            </g>
            <path d="M1145.77,112.137C1151.48,132.622 1160.79,189.583 1103.38,228.18C1086.84,208.458 1090.07,186.436 1099.93,166.863C1112.27,142.398 1134.74,121.49 1145.77,112.137Z" style="fill:rgb(175,109,19);"/>
            <path d="M1154.13,99.962C1154.13,99.962 1190.53,187.844 1105.5,240.818C1103.15,242.278 1100.11,241.911 1098.18,239.936C1073.85,215.023 1076.78,186.668 1089.43,161.57C1107.33,126.066 1145.15,97.509 1145.15,97.509C1146.61,96.414 1148.49,96.054 1150.24,96.534C1152,97.014 1153.43,98.28 1154.13,99.962ZM1145.77,112.137C1134.74,121.49 1112.27,142.398 1099.93,166.863C1090.07,186.436 1086.84,208.458 1103.38,228.18C1160.79,189.583 1151.48,132.622 1145.77,112.137Z" style="fill:rgb(58,31,2);"/>
            <path d="M1087.09,627.102C1087.27,630.342 1084.79,633.121 1081.55,633.305C1078.31,633.489 1075.53,631.007 1075.35,627.768C1065.63,456.346 1077.42,314.473 1113.76,182.02C1114.62,178.891 1125.61,154.785 1125.61,154.785C1125.61,154.785 1120.87,185.239 1120.02,188.368C1083.98,319.724 1077.45,457.1 1087.09,627.102Z" style="fill:rgb(58,31,2);"/>
            <path d="M1222.08,224.337C1224.84,226.047 1240.84,238.114 1240.84,238.114C1240.84,238.114 1224.35,231.963 1221.5,230.415C1197.99,217.651 1181.36,217.001 1162.76,222.071C1148.95,225.835 1136.54,235.539 1125.41,251.527C1113.65,268.433 1101.58,293.337 1092.96,324.55C1092.09,327.678 1090.72,328.354 1087.59,327.49C1084.46,326.626 1086.6,323.385 1087.46,320.257C1105.94,253.383 1128.38,219.253 1159.67,210.726C1180.99,204.914 1195.92,208.112 1222.08,224.337Z" style="fill:rgb(58,31,2);"/>
            <path d="M1222.62,324.105C1224.63,326.652 1231.47,341.362 1231.47,341.362C1231.47,341.362 1218.47,329.554 1216.46,327.007C1202.92,309.855 1192.11,305.018 1180.49,296.807C1169.72,289.2 1159.88,285.401 1150.76,285.485C1140.16,285.583 1130.79,291.069 1122.3,300.981C1108.07,317.584 1096.53,345.97 1086.92,384.117C1086.13,387.263 1082.93,389.174 1079.78,388.382C1076.64,387.589 1078.7,384.39 1079.49,381.244C1089.67,340.832 1098.3,310.918 1113.37,293.329C1124.41,280.446 1136.87,273.853 1150.65,273.727C1172.13,273.529 1193.08,286.68 1222.62,324.105Z" style="fill:rgb(58,31,2);"/>
            <path d="M1176.41,404.399C1177.84,407.317 1179.81,421.957 1179.81,421.957C1179.81,421.957 1172.16,409.893 1170.74,406.975C1157.73,380.24 1145.02,366.824 1134.29,355.233C1128.23,348.676 1122.84,344.715 1117.69,344.211C1113.33,343.785 1109.63,346.427 1106.07,351.356C1098.79,361.455 1089.63,380.272 1084.97,407.72C1084.42,410.919 1084.76,412.834 1081.56,412.291C1078.36,411.747 1076.2,408.709 1076.75,405.51C1081.83,375.59 1088.6,355.488 1096.54,344.479C1103.13,335.332 1110.74,331.717 1118.84,332.508C1126.14,333.222 1134.33,337.955 1142.93,347.247C1154.19,359.425 1162.75,376.311 1176.41,404.399Z" style="fill:rgb(58,31,2);"/>
        </g>
        <g id="Crunchyology-Stroke" serif:id="Crunchyology Stroke" transform="matrix(1.47724,0,0,1.85034,-83.9809,-203.71)">
            <g transform="matrix(1,0,0,1.10026,22.3896,-177.334)">
                <path d="M156.568,507.517C156.568,507.517 159.093,507.081 160.366,507.099C161.967,507.122 164.319,507.297 166.17,507.652C167.982,508 169.772,508.519 171.474,509.23C173.188,509.945 174.928,510.825 176.45,511.944C178.083,513.144 181.343,516.518 181.273,516.432C187.19,523.581 190.438,532.404 190.438,543.004C190.438,552.9 185.991,559.863 179.203,564.442L179.129,564.492L175.265,566.671L172.475,567.733L175.331,568.597L179.849,571.126L184.003,575.164L187.033,580.906C187.596,582.676 187.907,584.595 187.907,586.668C187.907,590.597 186.853,595.017 184.482,599.894C182.009,604.981 178.864,608.903 175.402,611.799C175.341,611.85 175.28,611.901 175.218,611.951L169.018,615.452C167.062,616.224 164.481,617.001 161.21,617.659C160.852,617.8 159.567,618.311 158.69,618.728C148.79,623.47 138.443,625.737 127.741,625.737C116.946,625.737 106.122,623.459 95.391,618.612C83.703,613.342 74.259,605.384 67.472,594.487C61.303,584.665 58.224,574.395 58.224,563.676C58.224,551.111 62.194,539.662 70.005,529.305L70.007,529.301C77.178,519.8 86.62,512.603 98.153,507.583C107.848,503.362 117.874,501.334 128.163,501.334C137.953,501.334 147.457,503.334 156.568,507.517ZM154.376,569.064L151.519,568.707L147.045,567.131L143.102,564.926C140.336,563.025 137.224,559.845 134.622,555.001C133.012,552.046 131.756,549.904 130.744,548.611C130.246,547.974 129.636,547.398 129.061,546.984C128.893,546.867 128.735,546.747 128.583,546.63C127.9,548.296 127.72,550.314 127.72,552.637C127.72,558.878 129.226,564.604 132.381,569.803C134.557,573.32 136.62,575.935 140.679,575.935C142.067,575.935 143.427,575.658 144.79,575.195C145.719,574.879 146.546,574.577 147.06,574.074L147.212,573.928L151.426,570.569L154.376,569.064Z" style="fill:rgb(58,31,2);fill-rule:nonzero;stroke:rgb(58,31,2);stroke-width:0.06px;"/>
            </g>
            <g transform="matrix(0.676937,0,0,0.540441,59.2682,110.093)">
                <path d="M1218.2,629.701L1229.48,739.086L1363.67,736.831L1368.18,621.808L1218.2,629.701Z" style="fill:rgb(58,31,2);stroke:rgb(58,31,2);stroke-width:0.11px;stroke-linecap:round;stroke-miterlimit:1.5;"/>
            </g>
            <g transform="matrix(0.676937,0,0,0.540441,59.2682,110.093)">
                <path d="M110.816,549.636L125.476,669.17L300.266,681.575L303.649,625.191L110.816,549.636Z" style="fill:rgb(58,31,2);stroke:rgb(58,31,2);stroke-width:0.11px;stroke-linecap:round;stroke-miterlimit:1.5;"/>
            </g>
            <g transform="matrix(0.891956,0,0,1.02014,37.7561,-132.463)">
                <path d="M164.82,589.181C165.353,585.227 165.591,578.785 165.615,569.857L161.147,566.071L158.054,561.018L157.109,555.871L157.664,551.751L159.417,547.661L162.311,543.916L166.054,540.746C169.599,538.25 175.314,535.528 183.627,533.068C193.629,530.083 202.213,528.771 209.229,528.706C209.229,528.706 209.397,528.699 209.481,528.705C210.737,528.804 214.633,528.928 216.763,529.298C218.646,529.625 222.26,530.925 222.26,530.925C222.26,530.925 224.743,529.908 226.055,529.687C228.179,529.329 232.221,528.816 235.005,528.775C237.597,528.738 240.223,528.986 242.753,529.446C245.283,529.907 247.908,530.647 250.184,531.537C252.366,532.389 256.414,534.784 256.414,534.784L261.125,538.674L261.215,538.766C263.509,541.142 265.529,544.153 267.004,547.881C268.331,551.235 268.954,554.463 268.954,557.559C268.954,561.035 268.183,564.608 266.556,568.268C264.776,572.273 262.338,575.523 259.734,577.9L254.894,581.699L248.644,584.864L241.214,586.93L234.78,587.487L235.499,587.783L241.533,592.317L245.237,597.986L246.314,603.684C246.314,603.684 245.918,608.017 245.087,609.99C244.219,612.049 242.788,614.303 241.11,616.035C239.32,617.882 236.84,619.776 234.346,621.073C231.714,622.442 225.313,624.25 225.313,624.25C219.576,625.445 211.175,626.209 200.059,626.209C188.105,626.209 179.111,624.806 172.897,622.713L172.808,622.683L166.001,619.509L160.48,614.827L157.305,609.345L156.406,603.965L157.085,599.431L159.134,595.064L162.34,591.191L164.82,589.181Z" style="fill:rgb(58,31,2);fill-rule:nonzero;stroke:rgb(58,31,2);stroke-width:0.07px;"/>
            </g>
            <g transform="matrix(0.924408,0,0,1.04027,28.42,-142.664)">
                <path d="M254.382,532.635C265.372,530.224 276.364,529.032 287.354,529.032L292.281,529.39L297.812,530.775L301.3,532.749C311.715,530.252 322,529.032 332.143,529.032L341.102,530.153L345.633,531.757L349.604,534.019L353.18,537.225L355.456,540.523L357.127,545.19C357.398,546.498 357.552,547.948 357.552,549.543C357.552,550.103 357.528,551.248 357.477,552.978L357.473,553.091C357.383,555.257 357.316,557.894 357.27,561.002L357.27,588.015L358.266,588.64L362.022,592.598L364.171,596.977L364.794,601.223L363.06,608.14L358.238,614.067C354.15,617.598 347.384,620.997 337.168,623.349C329.363,625.157 321.8,626.023 314.494,626.023L305.744,625.151L301.129,623.715L300.617,623.453C295.484,625.158 290.148,625.953 284.682,625.953C267.846,625.953 256.233,620.762 249.3,611.035C245.318,605.485 242.609,596.245 242.609,583.153C242.609,579.285 242.632,575.978 242.679,573.231L242.679,570.074C242.679,568.31 242.678,566.872 242.517,565.767C241.758,565.318 241.105,564.898 240.552,564.514L236.889,561.315L234.372,557.266L233.398,552.145L234.787,545.711L239.485,539.536L246.641,535.093C246.641,535.093 254.344,532.652 254.382,532.635ZM355.053,586.624C354.609,586.267 354.078,585.928 353.442,585.613L355.053,586.624Z" style="fill:rgb(58,31,2);fill-rule:nonzero;stroke:rgb(58,31,2);stroke-width:0.07px;"/>
            </g>
            <g transform="matrix(1,0,0,1.05029,-2.68676,-150.236)">
                <path d="M393.882,532.092C398.903,530.064 404.581,529.085 410.859,529.085C421.337,529.085 430.312,531.843 437.796,537.332L437.901,537.409C442.939,541.168 446.447,545.593 448.447,550.671C449.907,554.381 450.975,559.812 451.325,566.996L451.329,567.084L452.31,591.74C452.854,592.365 453.617,593.227 454.349,594.002L454.383,594.039L457.382,598.6L458.579,604.668L457.655,610.144L454.439,615.637L449.098,620.096L442.825,622.942C437.852,624.579 429.052,625.829 416.273,625.829C405.87,625.829 398.659,624.34 394.362,622.531L394.322,622.514L394.101,622.389L393.184,622.801C387.844,624.625 379.581,625.899 368.25,625.899C355.182,625.899 346.355,623.333 341.128,620.09L337.166,617.032L334.106,613.23L332.317,609.059L331.779,604.949L332.413,600.371L334.266,596.476L336.923,593.436C337.287,593.097 337.707,592.727 338.18,592.336C338.274,591.226 338.356,589.698 338.477,587.754C338.794,582.602 338.951,577.201 338.951,571.551C338.951,571.219 338.942,570.865 338.928,570.518L336.455,568.634L333.449,565.096L331.544,561.022L330.935,556.856L331.365,553.199L332.795,549.457L335.282,545.94L338.61,542.963C341.012,541.213 345.757,538.753 353.237,536.076L353.298,536.055C358.348,534.266 363.217,532.757 367.9,531.52C374.721,529.719 379.501,529.156 382.031,529.156L387.332,529.672L392.388,531.245L393.882,532.092Z" style="fill:rgb(58,31,2);fill-rule:nonzero;stroke:rgb(58,31,2);stroke-width:0.06px;"/>
            </g>
            <g transform="matrix(1,0,0,1.0497,-8.06027,-149.895)">
                <path d="M523.528,581.362L525.347,583.066L528.685,588.994L529.702,595.106C529.702,599.217 528.269,603.59 524.889,608.111C522.12,611.816 518.505,615.061 514.015,617.83L514.001,617.838C504.892,623.444 494.173,626.329 481.77,626.329C467.275,626.329 454.875,622.193 444.679,613.77C433.141,604.331 427.089,592.397 427.089,577.809C427.089,563.746 432.753,552.186 443.512,542.974C454.703,533.351 468.37,528.656 484.372,528.656C496.885,528.656 507.928,531.772 517.488,538.029L517.532,538.057C527.531,544.646 532.444,552.854 532.444,562.621C532.444,570.16 529.427,576.164 524.291,580.786L523.528,581.362Z" style="fill:rgb(58,31,2);fill-rule:nonzero;stroke:rgb(58,31,2);stroke-width:0.06px;"/>
            </g>
            <g transform="matrix(1,0,0,1.03668,-13.4338,-142.607)">
                <path d="M507.809,590.882C508.04,589.931 508.367,588.467 508.517,587.238C509.166,581.93 509.462,573.138 509.462,560.864C509.462,552.969 509.309,547.112 508.948,543.295L507.282,542.225L502.962,537.537L501.099,533.613L500.462,529.434L500.997,525.204L502.76,520.935L505.766,517.03L509.681,513.84C512.851,511.749 518.713,509.179 527.66,506.752C538.446,503.76 547.109,502.479 553.526,502.479L558.925,502.975L563.002,504.111L569.364,507.879L573.131,512.907L574.379,519.429L574.082,529.014C576.415,528.664 578.824,528.495 581.299,528.495C594.432,528.495 604.864,532.528 612.632,540.534C615.953,543.939 618.385,547.948 619.77,552.618C620.777,556.011 621.447,560.861 621.564,567.182L622.196,592.535L622.197,592.557L624.911,595.148L627.126,598.376L628.461,601.882L628.879,605.371L628.112,610.073L625.671,614.654L621.882,618.443L617.464,621.182C612.011,623.892 602.666,625.998 589.034,625.998C578.176,625.998 570.244,624.46 564.966,622.36C559.541,624.495 551.738,625.998 541.291,625.998C527.067,625.998 517.317,623.771 511.628,620.869L507.136,618.01L503.344,614.12L500.934,609.481L500.18,604.739L501.006,599.49L503.265,595.246C504.026,594.243 505.477,592.721 507.809,590.882Z" style="fill:rgb(58,31,2);fill-rule:nonzero;stroke:rgb(58,31,2);stroke-width:0.06px;"/>
            </g>
            <g transform="matrix(1,0,0,1.10632,-21.4941,-181.316)">
                <path d="M662.534,533.64C667.931,531.288 674.992,529.807 683.922,529.807C695.796,529.807 703.661,532.539 708.41,535.966L711.722,538.93L714.078,542.322L715.372,545.821L715.751,549.192L714.826,554.62L711.248,560.308L706.551,563.989C705.107,564.859 703.36,565.732 701.273,566.568C699.62,569.328 697.815,573.566 695.711,579.248L686.441,604.739C683.904,611.729 681.323,617.43 678.76,621.857C675.831,626.916 672.453,631.202 668.725,634.752C658.976,644.049 646.95,648.31 633.226,648.31C620.968,648.31 611.085,644.99 603.482,638.544C597.675,633.637 594.436,627.462 594.436,619.856C594.436,613.5 596.762,608.214 600.848,603.88L604.774,600.456L610.022,597.504L616.478,595.511L618.095,595.355L607.015,571.77C606.399,570.475 605.664,569.1 605.16,568.182C604.847,568.027 604.512,567.867 604.218,567.736L604.913,568.029L599.503,564.916L595.231,560.101L593.434,556.244L592.748,551.934L594.095,545.772L598.266,540.107C602.107,536.516 608.402,533.316 618.004,531.58L618.065,531.569C624.783,530.373 632.434,529.737 641.031,529.737C649.233,529.737 655.619,530.87 660.221,532.53L662.534,533.64Z" style="fill:rgb(58,31,2);fill-rule:nonzero;stroke:rgb(58,31,2);stroke-width:0.06px;"/>
            </g>
            <g transform="matrix(1,0,0,1.10632,350.174,-181.316)">
                <path d="M662.534,533.64C667.931,531.288 674.992,529.807 683.922,529.807C695.796,529.807 704.027,533.114 708.224,535.192C709.705,535.927 710.778,537.871 711.722,538.93C712.638,539.958 713.469,541.173 714.078,542.322C714.66,543.421 715.093,544.676 715.372,545.821C715.64,546.92 715.821,548.063 715.751,549.192C715.66,550.658 715.515,552.919 714.826,554.62C714.075,556.473 712.628,558.747 711.248,560.308C709.932,561.799 706.551,563.989 706.551,563.989C705.107,564.859 703.36,565.732 701.273,566.568C699.62,569.328 697.815,573.566 695.711,579.248L686.441,604.739C683.904,611.729 681.323,617.43 678.76,621.857C675.831,626.916 672.453,631.202 668.725,634.752C658.976,644.049 646.95,648.31 633.226,648.31C620.968,648.31 611.085,644.99 603.482,638.544C597.675,633.637 594.436,627.462 594.436,619.856C594.436,613.5 596.762,608.214 600.848,603.88L604.774,600.456L610.022,597.504L616.478,595.511L618.095,595.355L607.015,571.77C606.399,570.475 605.664,569.1 605.16,568.182C604.847,568.027 604.512,567.867 604.218,567.736L604.913,568.029L599.503,564.916L595.231,560.101L593.434,556.244L592.748,551.934L594.095,545.772L598.266,540.107C602.107,536.516 608.402,533.316 618.004,531.58L618.065,531.569C624.783,530.373 632.434,529.737 641.031,529.737C649.233,529.737 655.619,530.87 660.221,532.53L662.534,533.64Z" style="fill:rgb(58,31,2);fill-rule:nonzero;stroke:rgb(58,31,2);stroke-width:0.06px;"/>
            </g>
            <g transform="matrix(0.993235,0.0927048,-0.154112,1.05242,67.9944,-220.322)">
                <path d="M738.029,528.706C750.936,528.706 762.275,532.02 772.009,538.72C778.358,543.083 783.562,548.706 787.411,555.697L787.438,555.747C791.184,562.635 793.061,569.825 793.061,577.317C793.061,591.004 786.746,602.629 774.194,612.217L774.189,612.221C761.807,621.67 747.525,626.209 731.56,626.209C714.957,626.209 701.55,621.43 691.268,611.985C682.235,603.701 677.3,593.009 677.3,579.707C677.3,565.174 683.067,553.379 693.899,544.139C705.989,533.766 720.752,528.706 738.029,528.706Z" style="fill:rgb(58,31,2);fill-rule:nonzero;stroke:rgb(58,31,2);stroke-width:0.06px;"/>
            </g>
            <g transform="matrix(0.993235,0.0927048,-0.154112,1.05242,190.69,-220.322)">
                <path d="M738.029,528.706C750.936,528.706 762.275,532.02 772.009,538.72C778.358,543.083 783.562,548.706 787.411,555.697L787.438,555.747C791.184,562.635 793.061,569.825 793.061,577.317C793.061,591.004 786.746,602.629 774.194,612.217L774.189,612.221C761.807,621.67 747.525,626.209 731.56,626.209C714.957,626.209 701.55,621.43 691.268,611.985C682.235,603.701 677.3,593.009 677.3,579.707C677.3,565.174 683.067,553.379 693.899,544.139C705.989,533.766 720.752,528.706 738.029,528.706Z" style="fill:rgb(58,31,2);fill-rule:nonzero;stroke:rgb(58,31,2);stroke-width:0.06px;"/>
            </g>
            <g transform="matrix(0.946029,0,0,1.08804,6.18913,-172.674)">
                <path d="M837.906,591.503L838.71,591.93L842.532,595.173L845.129,599.324L846.095,604.528L845.055,610L841.865,615.168L836.415,619.705L828.893,622.923L829.366,622.784C824.551,624.255 816.507,625.383 805.073,625.383C791.952,625.383 782.875,623.844 777.763,621.942L771.137,618.587L766.399,614.313L763.42,609.423L762.364,604.035L763.431,598.729L766.253,594.54L770.279,591.367C770.374,591.308 770.471,591.249 770.571,591.189C771.252,585.371 771.575,577.207 771.575,566.699C771.575,556.148 771.366,549.356 770.76,546.329C770.74,546.23 770.706,546.107 770.67,545.988C769.115,545.014 767.819,544.056 766.751,543.135L763.517,539.667L761.172,534.924L760.536,530.418L761.018,526.577L762.537,522.766L765.063,519.22L768.392,516.131C771.934,513.38 777.372,510.614 785.129,508.277C789.099,507.071 794.226,505.889 800.542,504.798C807.663,503.568 812.875,503.094 816.112,503.094L820.651,503.401L825.409,504.45L829.822,506.274L833.369,508.631L836.281,511.676L838.01,514.606C838.932,516.638 839.556,519.227 839.556,522.403C839.556,524.005 839.324,527.679 838.826,533.423C838.234,541.583 837.89,549.062 837.798,555.861L837.798,578.371C837.798,584.449 837.813,588.827 837.906,591.503Z" style="fill:rgb(58,31,2);fill-rule:nonzero;stroke:rgb(58,31,2);stroke-width:0.06px;"/>
            </g>
            <g transform="matrix(1.03343,0,0,1.0563,-70.0084,-152.539)">
                <path d="M902.483,609.993C900.149,606.337 899.09,602.592 899.09,598.832C899.09,594.5 900.592,589.978 904.067,585.375C904.681,584.562 905.326,583.786 905.999,583.046C902.573,577.917 900.848,572.26 900.848,566.067C900.848,561.036 902.215,556.231 904.955,551.651C907.684,547.091 911.485,543.208 916.344,539.994L916.432,539.936C927.12,532.965 939.017,529.58 952.029,529.58C956.912,529.58 962.364,530.151 968.389,531.399C970.334,531.78 972.627,532.126 973.356,532.233C974.547,532.079 975.374,531.031 976.619,530.039C976.734,529.948 976.839,529.84 976.968,529.77C978.181,529.108 981.575,526.874 983.899,526.069C986.136,525.294 988.829,525.021 990.912,524.94C992.752,524.868 994.695,525.187 996.399,525.582C998.035,525.961 999.68,526.576 1001.13,527.306C1002.56,528.023 1003.93,528.906 1005.12,529.963C1006.36,531.05 1007.6,532.381 1008.53,533.827C1009.51,535.353 1010.46,537.356 1010.99,539.12C1011.5,540.824 1011.95,542.645 1011.72,544.41C1011.36,547.145 1010.87,551.392 1008.84,555.525C1007.53,558.191 1006,560.484 1004.32,562.426C1004.33,562.758 1004.34,563.081 1004.34,563.395C1004.34,572.097 1001.15,579.346 995.3,585.27L995.239,585.331L995.231,585.339C996.086,585.75 996.898,586.186 997.668,586.645C1002.2,589.285 1005.94,592.885 1008.6,597.607C1010.94,601.742 1012.14,606.178 1012.14,610.926C1012.14,617.935 1009.69,624.763 1004.55,631.356L1004.52,631.398C998.599,638.93 989.988,644.606 978.487,648.238L978.448,648.25C970.403,650.771 961.118,652.123 950.552,652.123C936.514,652.123 925.229,649.669 916.502,645.369L916.411,645.324C911.157,642.697 906.965,639.254 903.846,634.986C900.581,630.518 899.02,625.863 899.02,621.051L899.826,615.509L902.313,610.187L902.483,609.993ZM909.3,603.679L912.924,601.444C911.377,602.101 910.198,602.862 909.3,603.679ZM951.075,617.304C950.426,618.287 950.137,619.406 950.137,620.629C950.137,621.452 950.275,622.227 950.541,622.955C951.403,621.736 952.022,620.223 952.022,618.309C952.022,617.952 951.984,617.608 951.905,617.279C951.631,617.289 951.354,617.297 951.075,617.304Z" style="fill:rgb(58,31,2);fill-rule:nonzero;stroke:rgb(58,31,2);stroke-width:0.06px;"/>
            </g>
        </g>
        <g id="Crunchyology" transform="matrix(1.47724,0,0,1.85034,-83.9809,-203.71)">
            <g transform="matrix(1,0,0,1.10026,22.3896,-177.334)">
                <path d="M128.163,513.614C135.007,513.614 141.616,515.114 147.991,518.114C150.991,519.52 153.077,520.223 154.249,520.223C155.093,520.223 156.452,520.012 158.327,519.59C158.937,519.449 159.616,519.379 160.366,519.379C162.804,519.379 164.937,520.504 166.765,522.754C171.265,528.192 173.515,534.942 173.515,543.004C173.515,548.676 171.57,552.824 167.679,555.449C165.57,556.856 163.202,557.559 160.577,557.559C158.187,557.559 156.241,557.043 154.741,556.012C153.241,554.981 151.788,553.153 150.382,550.528C148.366,546.824 146.726,544.164 145.46,542.547C144.195,540.93 142.648,539.465 140.82,538.153C136.273,534.965 131.515,533.371 126.546,533.371C121.718,533.371 117.886,535.117 115.05,538.61C112.214,542.102 110.796,546.778 110.796,552.637C110.796,560.699 112.835,568.082 116.913,574.785C122.445,583.739 130.366,588.215 140.679,588.215C144.476,588.215 148.237,587.582 151.964,586.317C155.691,585.051 158.585,583.41 160.648,581.395C162.429,579.707 163.882,578.864 165.007,578.864C166.648,578.864 168.054,579.625 169.226,581.149C170.398,582.672 170.984,584.512 170.984,586.668C170.984,589.387 170.163,592.434 168.523,595.809C166.882,599.184 164.913,601.832 162.616,603.754C161.632,604.551 159.593,605.254 156.499,605.864C154.718,606.192 152.351,607.059 149.398,608.465C142.46,611.793 135.241,613.457 127.741,613.457C119.913,613.457 112.109,611.699 104.327,608.184C95.28,604.106 88.132,597.848 82.882,589.41C77.726,581.207 75.148,572.629 75.148,563.676C75.148,553.27 78.382,543.778 84.851,535.199C90.476,527.746 97.812,522.051 106.859,518.114C113.749,515.114 120.851,513.614 128.163,513.614Z" style="fill:rgb(202,103,2);fill-rule:nonzero;"/>
            </g>
            <g transform="matrix(0.891956,0,0,1.02014,37.7561,-132.463)">
                <path d="M209.481,541.949C211.965,541.949 213.477,542.301 214.016,543.004C214.555,543.707 215.036,545.957 215.458,549.754C215.692,551.817 216.419,552.848 217.637,552.848C218.575,552.848 219.465,552.168 220.309,550.809C224.059,544.949 228.958,542.02 235.005,542.02C239.27,542.02 242.762,543.403 245.481,546.168C246.794,547.528 247.872,549.274 248.715,551.407C249.559,553.539 249.981,555.59 249.981,557.559C249.981,559.762 249.465,562.024 248.434,564.344C247.403,566.664 246.067,568.574 244.426,570.074C241.426,572.934 237.747,574.364 233.387,574.364C230.997,574.364 228.993,573.942 227.376,573.098C225.758,572.254 223.637,570.543 221.012,567.965C220.028,566.981 219.114,566.489 218.27,566.489C216.958,566.489 216.102,567.227 215.704,568.703C215.305,570.18 215.106,573.285 215.106,578.02C215.106,585.098 215.364,589.926 215.88,592.504C216.208,593.91 216.665,594.883 217.251,595.422C217.837,595.961 219.09,596.512 221.012,597.074C225.231,598.34 227.34,600.543 227.34,603.684C227.34,605.606 226.661,607.282 225.301,608.711C223.942,610.141 222.137,611.09 219.887,611.559C215.387,612.496 208.778,612.965 200.059,612.965C191.762,612.965 185.458,612.239 181.145,610.785C177.301,609.473 175.38,607.199 175.38,603.965C175.38,601.528 176.786,599.348 179.598,597.426C180.958,596.535 181.895,595.727 182.411,595C182.926,594.274 183.278,593.278 183.465,592.012C184.215,587.746 184.59,579.848 184.59,568.317C184.59,566.207 184.356,564.696 183.887,563.782C183.419,562.867 182.481,562.129 181.075,561.567C177.747,560.254 176.083,558.356 176.083,555.871C176.083,553.621 177.231,551.688 179.528,550.071C181.825,548.453 185.669,546.848 191.059,545.254C198.278,543.098 204.419,541.996 209.481,541.949Z" style="fill:rgb(202,103,2);fill-rule:nonzero;"/>
            </g>
            <g transform="matrix(0.924408,0,0,1.04027,28.42,-142.664)">
                <path d="M291.502,545.535L291.502,583.645C291.502,591.801 294.197,595.879 299.588,595.879C300.947,595.879 302.283,595.492 303.596,594.719C304.908,593.946 305.822,592.996 306.338,591.871C307.369,589.621 307.885,584.606 307.885,576.824C307.885,569.137 307.627,563.887 307.111,561.074C306.924,559.903 306.596,559.047 306.127,558.508C305.658,557.969 304.768,557.348 303.455,556.645C300.783,555.239 299.447,553.457 299.447,551.301C299.447,548.395 301.744,546.379 306.338,545.254C315.057,543.098 323.658,542.02 332.143,542.02C336.877,542.02 339.244,544.528 339.244,549.543C339.244,550.059 339.221,551.114 339.174,552.707C339.08,554.957 339.01,557.699 338.963,560.934L338.963,591.942C338.963,593.535 340.322,594.989 343.041,596.301C345.338,597.426 346.486,599.067 346.486,601.223C346.486,605.442 341.494,608.699 331.51,610.996C325.65,612.356 319.979,613.035 314.494,613.035C312.244,613.035 310.709,612.778 309.889,612.262C309.068,611.746 308.588,610.739 308.447,609.239C308.213,606.332 307.322,604.879 305.775,604.879C305.213,604.879 304.697,605.008 304.229,605.266C303.76,605.524 302.33,606.473 299.94,608.114C295.205,611.348 290.119,612.965 284.682,612.965C275.682,612.965 269.33,610.364 265.627,605.16C262.486,600.801 260.916,593.465 260.916,583.153C260.916,579.309 260.94,576.028 260.986,573.309L260.986,570.074C260.986,566.043 260.623,563.078 259.897,561.18C259.17,559.282 257.846,557.793 255.924,556.715C254.096,555.778 252.936,555.028 252.443,554.465C251.951,553.903 251.705,553.129 251.705,552.145C251.705,548.582 254.4,546.215 259.791,545.043C268.979,543.028 278.166,542.02 287.354,542.02C290.119,542.02 291.502,543.192 291.502,545.535Z" style="fill:rgb(202,103,2);fill-rule:nonzero;"/>
            </g>
            <g transform="matrix(1,0,0,1.05029,-2.68676,-150.236)">
                <path d="M434.414,567.473L435.398,592.223C435.492,594.098 435.785,595.481 436.277,596.371C436.769,597.262 438.21,598.973 440.601,601.504C441.304,602.254 441.656,603.309 441.656,604.668C441.656,607.762 439.804,609.918 436.101,611.137C432.398,612.356 425.789,612.965 416.273,612.965C409.804,612.965 405.234,612.403 402.562,611.278C399.796,610.106 398.414,608.207 398.414,605.582C398.414,604.645 398.554,603.953 398.835,603.508C399.117,603.063 400.054,601.973 401.648,600.239C403.523,598.27 404.46,591.707 404.46,580.551C404.46,574.082 403.71,569.301 402.21,566.207C400.992,563.723 398.742,562.481 395.46,562.481C392.32,562.481 390.164,563.489 388.992,565.504C387.82,567.52 387.234,571.176 387.234,576.473L387.234,590.395C387.234,593.16 387.41,595.059 387.761,596.09C388.113,597.121 389.273,599.114 391.242,602.067C391.757,602.91 392.015,603.871 392.015,604.949C392.015,607.715 390.093,609.754 386.25,611.067C382.406,612.379 376.406,613.035 368.25,613.035C355.218,613.035 348.703,610.34 348.703,604.949C348.703,603.824 348.902,602.969 349.3,602.383C349.699,601.797 350.648,600.965 352.148,599.887C353.367,598.996 354.14,597.977 354.468,596.828C354.796,595.68 355.101,592.856 355.382,588.356C355.71,583.012 355.875,577.41 355.875,571.551C355.875,568.317 355.628,566.196 355.136,565.188C354.644,564.18 353.226,562.949 350.882,561.496C348.867,560.231 347.859,558.684 347.859,556.856C347.859,554.981 348.679,553.446 350.32,552.25C351.96,551.055 355.335,549.543 360.445,547.715C364.945,546.121 369.281,544.774 373.453,543.672C377.625,542.571 380.484,542.02 382.031,542.02C383.437,542.02 384.621,542.535 385.582,543.567C386.542,544.598 387.023,545.817 387.023,547.223C387.023,547.364 387,547.949 386.953,548.981C386.906,549.356 386.882,549.684 386.882,549.965C386.882,552.215 387.82,553.34 389.695,553.34C390.82,553.34 392.015,552.449 393.281,550.668C397.312,544.856 403.171,541.949 410.859,541.949C416.765,541.949 421.828,543.496 426.046,546.59C429,548.793 431.062,551.383 432.234,554.36C433.406,557.336 434.132,561.707 434.414,567.473Z" style="fill:rgb(202,103,2);fill-rule:nonzero;"/>
            </g>
            <g transform="matrix(1,0,0,1.0497,-8.06027,-149.895)">
                <path d="M484.372,541.528C492.716,541.528 500.075,543.614 506.45,547.785C512.497,551.77 515.52,556.715 515.52,562.621C515.52,566.699 514.114,570.004 511.302,572.535C508.677,574.926 505.513,576.121 501.81,576.121C497.919,576.121 494.989,574.715 493.02,571.903C492.411,571.012 491.52,568.739 490.349,565.082C489.083,561.145 486.669,559.176 483.106,559.176C480.528,559.176 478.36,560.301 476.602,562.551C474.845,564.801 473.966,567.567 473.966,570.848C473.966,576.473 475.981,581.465 480.013,585.824C483.294,589.34 487.419,591.098 492.388,591.098C494.731,591.098 496.7,590.899 498.294,590.5C499.888,590.102 501.974,589.293 504.552,588.074C505.208,587.746 505.935,587.582 506.731,587.582C508.325,587.582 509.731,588.332 510.95,589.832C512.169,591.332 512.778,593.09 512.778,595.106C512.778,597.215 511.911,599.43 510.177,601.75C508.442,604.071 506.169,606.098 503.356,607.832C497.263,611.582 490.067,613.457 481.77,613.457C472.114,613.457 463.888,610.645 457.091,605.02C448.372,597.895 444.013,588.824 444.013,577.809C444.013,567.215 448.067,558.449 456.177,551.512C463.911,544.856 473.31,541.528 484.372,541.528Z" style="fill:rgb(202,103,2);fill-rule:nonzero;"/>
            </g>
            <g transform="matrix(1,0,0,1.03668,-13.4338,-142.607)">
                <path d="M557.463,519.028L556.549,548.489C556.455,552.004 557.534,553.762 559.784,553.762C560.909,553.762 562.01,552.989 563.088,551.442C567.635,544.832 573.705,541.528 581.299,541.528C588.752,541.528 594.682,543.801 599.088,548.348C601.057,550.364 602.452,552.754 603.272,555.52C604.092,558.285 604.549,562.246 604.643,567.403L605.276,592.785C605.323,594.989 605.616,596.606 606.155,597.637C606.694,598.668 607.948,599.957 609.916,601.504C611.276,602.582 611.955,603.871 611.955,605.371C611.955,610.434 604.315,612.965 589.034,612.965C575.44,612.965 568.643,610.598 568.643,605.864C568.643,605.067 568.76,604.457 568.995,604.035C569.229,603.614 570.049,602.489 571.455,600.66C573.424,598.082 574.409,591.637 574.409,581.324C574.409,575.09 573.823,570.543 572.651,567.684C571.104,563.793 568.338,561.848 564.354,561.848C561.495,561.848 559.385,562.879 558.026,564.942C557.041,566.442 556.549,569.254 556.549,573.379L556.549,586.949C556.877,592.949 557.159,596.348 557.393,597.145C557.627,597.942 558.705,599.418 560.627,601.574C561.518,602.559 561.963,603.707 561.963,605.02C561.963,610.317 555.073,612.965 541.291,612.965C525.166,612.965 517.104,610.223 517.104,604.739C517.104,603.473 517.362,602.5 517.877,601.821C518.393,601.141 519.659,600.098 521.674,598.692C523.455,597.426 524.686,594.016 525.366,588.461C526.045,582.907 526.385,573.707 526.385,560.864C526.385,550.785 526.104,543.801 525.541,539.91C525.354,538.457 525.014,537.391 524.522,536.711C524.03,536.032 523.104,535.34 521.745,534.637C518.838,533.137 517.385,531.403 517.385,529.434C517.385,527.09 518.487,525.192 520.69,523.739C522.893,522.285 527.112,520.715 533.346,519.028C541.784,516.684 548.51,515.512 553.526,515.512C556.245,515.512 557.557,516.684 557.463,519.028Z" style="fill:rgb(202,103,2);fill-rule:nonzero;"/>
            </g>
            <g transform="matrix(1,0,0,1.10632,-21.4941,-181.316)">
                <path d="M679.351,576.121L670.07,601.645C667.773,607.973 665.465,613.141 663.144,617.149C660.824,621.157 658.187,624.567 655.234,627.379C649.14,633.192 641.805,636.098 633.226,636.098C626.289,636.098 620.664,634.27 616.351,630.614C613.023,627.801 611.359,624.215 611.359,619.856C611.359,616.246 612.519,613.211 614.84,610.75C617.16,608.289 620.008,607.059 623.383,607.059C626.758,607.059 629.476,608.184 631.539,610.434C632.523,611.465 633.18,612.379 633.508,613.176C633.836,613.973 634.328,615.731 634.984,618.449C635.5,620.512 636.672,621.543 638.5,621.543C639.953,621.543 641.172,620.91 642.156,619.645C643.14,618.379 643.633,616.809 643.633,614.934C643.633,612.731 642.414,609.051 639.976,603.895L623.031,567.824C621.25,564.074 619.914,561.731 619.023,560.793C618.133,559.856 616.164,558.707 613.117,557.348C612.18,556.973 611.371,556.235 610.691,555.133C610.012,554.032 609.672,552.965 609.672,551.934C609.672,547.762 613.82,544.926 622.117,543.426C627.648,542.442 633.953,541.949 641.031,541.949C646,541.949 649.914,542.465 652.773,543.496C656.617,544.856 658.539,547.176 658.539,550.457C658.539,551.629 658,553.012 656.922,554.606C655.89,556.106 655.375,557.442 655.375,558.614C655.375,559.739 655.621,560.91 656.113,562.129C656.605,563.348 657.648,565.41 659.242,568.317C661.023,571.598 662.594,573.239 663.953,573.239C665.406,573.239 666.906,571.797 668.453,568.914C670,566.032 670.773,563.254 670.773,560.582C670.773,558.426 670.187,556.668 669.015,555.309C667.234,553.199 666.344,551.395 666.344,549.895C666.344,547.504 667.937,545.594 671.125,544.164C674.312,542.735 678.578,542.02 683.922,542.02C693.859,542.02 698.828,544.41 698.828,549.192C698.828,550.926 698.324,552.321 697.316,553.375C696.308,554.43 694.469,555.426 691.797,556.364C689.547,557.207 687.765,558.614 686.453,560.582C684.39,563.723 682.023,568.903 679.351,576.121Z" style="fill:rgb(202,103,2);fill-rule:nonzero;"/>
            </g>
            <g transform="matrix(1,0,0,1.10632,350.174,-181.316)">
                <path d="M679.351,576.121L670.07,601.645C667.773,607.973 665.465,613.141 663.144,617.149C660.824,621.157 658.187,624.567 655.234,627.379C649.14,633.192 641.805,636.098 633.226,636.098C626.289,636.098 620.664,634.27 616.351,630.614C613.023,627.801 611.359,624.215 611.359,619.856C611.359,616.246 612.519,613.211 614.84,610.75C617.16,608.289 620.008,607.059 623.383,607.059C626.758,607.059 629.476,608.184 631.539,610.434C632.523,611.465 633.18,612.379 633.508,613.176C633.836,613.973 634.328,615.731 634.984,618.449C635.5,620.512 636.672,621.543 638.5,621.543C639.953,621.543 641.172,620.91 642.156,619.645C643.14,618.379 643.633,616.809 643.633,614.934C643.633,612.731 642.414,609.051 639.976,603.895L623.031,567.824C621.25,564.074 619.914,561.731 619.023,560.793C618.133,559.856 616.164,558.707 613.117,557.348C612.18,556.973 611.371,556.235 610.691,555.133C610.012,554.032 609.672,552.965 609.672,551.934C609.672,547.762 613.82,544.926 622.117,543.426C627.648,542.442 633.953,541.949 641.031,541.949C646,541.949 649.914,542.465 652.773,543.496C656.617,544.856 658.539,547.176 658.539,550.457C658.539,551.629 658,553.012 656.922,554.606C655.89,556.106 655.375,557.442 655.375,558.614C655.375,559.739 655.621,560.91 656.113,562.129C656.605,563.348 657.648,565.41 659.242,568.317C661.023,571.598 662.594,573.239 663.953,573.239C665.406,573.239 666.906,571.797 668.453,568.914C670,566.032 670.773,563.254 670.773,560.582C670.773,558.426 670.187,556.668 669.015,555.309C667.234,553.199 666.344,551.395 666.344,549.895C666.344,547.504 667.937,545.594 671.125,544.164C674.312,542.735 678.578,542.02 683.922,542.02C693.859,542.02 698.828,544.41 698.828,549.192C698.828,550.926 698.324,552.321 697.316,553.375C696.308,554.43 694.469,555.426 691.797,556.364C689.547,557.207 687.765,558.614 686.453,560.582C684.39,563.723 682.023,568.903 679.351,576.121Z" style="fill:rgb(202,103,2);fill-rule:nonzero;"/>
            </g>
            <g transform="matrix(0.993235,0.0927048,-0.154112,1.05242,67.9944,-220.322)">
                <path d="M738.029,541.457C746.607,541.457 754.13,543.684 760.599,548.137C765.24,551.324 768.966,555.473 771.779,560.582C774.685,565.926 776.138,571.504 776.138,577.317C776.138,587.489 771.474,596.137 762.146,603.262C753.24,610.059 743.044,613.457 731.56,613.457C720.357,613.457 711.286,610.27 704.349,603.895C697.599,597.707 694.224,589.645 694.224,579.707C694.224,568.645 698.349,559.598 706.599,552.567C715.224,545.16 725.7,541.457 738.029,541.457ZM732.404,557.699C730.341,557.699 728.689,558.461 727.447,559.985C726.204,561.508 725.583,563.535 725.583,566.067C725.583,568.879 726.111,572.711 727.165,577.563C728.22,582.414 729.474,586.715 730.927,590.465C732.38,594.309 734.747,596.231 738.029,596.231C742.2,596.231 744.286,593.582 744.286,588.285C744.286,584.348 743.759,579.871 742.704,574.856C741.65,569.84 740.372,565.762 738.872,562.621C737.325,559.434 735.169,557.793 732.404,557.699Z" style="fill:rgb(202,103,2);fill-rule:nonzero;"/>
            </g>
            <g transform="matrix(0.993235,0.0927048,-0.154112,1.05242,190.69,-220.322)">
                <path d="M738.029,541.457C746.607,541.457 754.13,543.684 760.599,548.137C765.24,551.324 768.966,555.473 771.779,560.582C774.685,565.926 776.138,571.504 776.138,577.317C776.138,587.489 771.474,596.137 762.146,603.262C753.24,610.059 743.044,613.457 731.56,613.457C720.357,613.457 711.286,610.27 704.349,603.895C697.599,597.707 694.224,589.645 694.224,579.707C694.224,568.645 698.349,559.598 706.599,552.567C715.224,545.16 725.7,541.457 738.029,541.457ZM732.404,557.699C730.341,557.699 728.689,558.461 727.447,559.985C726.204,561.508 725.583,563.535 725.583,566.067C725.583,568.879 726.111,572.711 727.165,577.563C728.22,582.414 729.474,586.715 730.927,590.465C732.38,594.309 734.747,596.231 738.029,596.231C742.2,596.231 744.286,593.582 744.286,588.285C744.286,584.348 743.759,579.871 742.704,574.856C741.65,569.84 740.372,565.762 738.872,562.621C737.325,559.434 735.169,557.793 732.404,557.699Z" style="fill:rgb(202,103,2);fill-rule:nonzero;"/>
            </g>
            <g transform="matrix(0.946029,0,0,1.08804,6.18913,-172.674)">
                <path d="M819.909,555.801L819.909,578.371C819.909,588.356 820.061,594.168 820.366,595.809C820.671,597.449 821.831,598.715 823.846,599.606C825.581,600.356 826.741,601.059 827.327,601.715C827.913,602.371 828.206,603.309 828.206,604.528C828.206,606.074 827.655,607.481 826.553,608.746C825.452,610.012 823.987,610.903 822.159,611.418C818.784,612.449 813.089,612.965 805.073,612.965C796.026,612.965 789.675,612.285 786.018,610.926C784.331,610.317 782.948,609.367 781.87,608.078C780.792,606.789 780.253,605.442 780.253,604.035C780.253,602.91 780.546,602.043 781.132,601.434C781.717,600.824 782.995,600.098 784.964,599.254C786.792,598.457 787.917,596.278 788.339,592.715C789.089,586.621 789.464,577.949 789.464,566.699C789.464,555.262 789.135,547.903 788.479,544.621C787.823,541.34 786.182,538.903 783.557,537.309C781.589,536.184 780.241,535.117 779.514,534.11C778.788,533.102 778.425,531.871 778.425,530.418C778.425,528.121 779.526,526.117 781.729,524.407C783.932,522.696 787.448,521.114 792.276,519.66C795.51,518.676 799.706,517.739 804.862,516.848C810.018,515.957 813.768,515.512 816.112,515.512C819.815,515.512 821.667,517.809 821.667,522.403C821.667,523.903 821.432,527.348 820.964,532.739C820.354,541.129 820.003,548.817 819.909,555.801Z" style="fill:rgb(202,103,2);fill-rule:nonzero;"/>
            </g>
            <g transform="matrix(1.03343,0,0,1.0563,-70.0084,-152.539)">
                <path d="M990.912,537.731C992.084,537.731 993.115,538.399 994.005,539.735C994.896,541.071 995.341,542.629 995.341,544.41C995.341,546.332 994.744,548.512 993.548,550.949C992.353,553.387 990.912,555.332 989.224,556.785C988.146,557.723 987.607,558.473 987.607,559.035C987.607,559.176 987.654,559.739 987.748,560.723C987.888,561.707 987.959,562.598 987.959,563.395C987.959,568.973 986.084,573.66 982.334,577.457C978.959,580.832 974.611,583.457 969.291,585.332C963.97,587.207 958.123,588.145 951.748,588.145C950.201,588.145 948.677,588.051 947.177,587.864C945.959,587.723 945.021,587.653 944.365,587.653C941.88,587.653 940.638,588.895 940.638,591.379C940.638,592.973 941.447,594.227 943.064,595.141C944.681,596.055 946.873,596.512 949.638,596.512C951.513,596.512 954.279,596.254 957.935,595.739C965.623,594.66 971.295,594.121 974.951,594.121C980.482,594.121 984.771,595.035 987.818,596.864C990.255,598.27 992.189,600.239 993.619,602.77C995.048,605.301 995.763,608.02 995.763,610.926C995.763,615.66 994.029,620.254 990.56,624.707C986.435,629.957 980.365,633.848 972.349,636.379C966.068,638.348 958.802,639.332 950.552,639.332C940.146,639.332 931.709,637.739 925.24,634.551C922.24,633.051 919.849,631.082 918.068,628.645C916.287,626.207 915.396,623.676 915.396,621.051C915.396,619.223 915.9,617.535 916.908,615.989C917.916,614.442 919.193,613.34 920.74,612.684C922.146,612.121 922.849,611.512 922.849,610.856C922.849,610.34 922.263,609.59 921.091,608.606C917.341,605.465 915.466,602.207 915.466,598.832C915.466,596.582 916.369,594.262 918.173,591.871C919.978,589.481 922.216,587.629 924.888,586.317C926.013,585.754 926.576,585.192 926.576,584.629C926.576,583.973 925.873,582.989 924.466,581.676C919.638,577.223 917.224,572.02 917.224,566.067C917.224,562.926 918.08,559.926 919.791,557.067C921.502,554.207 923.88,551.77 926.927,549.754C934.474,544.832 942.841,542.371 952.029,542.371C955.685,542.371 959.763,542.84 964.263,543.778C968.529,544.621 971.459,545.043 973.052,545.043C978.162,545.043 983.248,543.028 988.31,538.996C989.435,538.153 990.302,537.731 990.912,537.731ZM952.732,552.285C950.388,552.285 948.502,553.176 947.072,554.957C945.642,556.739 944.927,559.106 944.927,562.059C944.927,567.121 945.701,571.176 947.248,574.223C948.795,577.27 950.834,578.793 953.365,578.793C955.849,578.793 957.818,577.844 959.271,575.946C960.724,574.047 961.451,571.504 961.451,568.317C961.451,563.301 960.689,559.399 959.166,556.61C957.642,553.821 955.498,552.379 952.732,552.285ZM937.404,616.27C936.232,616.27 935.646,616.949 935.646,618.309C935.646,621.074 937.146,623.313 940.146,625.024C943.146,626.735 947.037,627.59 951.818,627.59C956.412,627.59 960.009,626.981 962.611,625.762C965.212,624.543 966.513,622.832 966.513,620.629C966.513,619.457 966.021,618.461 965.037,617.641C964.052,616.821 962.834,616.41 961.38,616.41C960.63,616.41 959.552,616.504 958.146,616.692C955.521,617.114 952.591,617.324 949.357,617.324C946.966,617.324 944.67,617.207 942.466,616.973C940.826,616.832 939.49,616.645 938.459,616.41C937.99,616.317 937.638,616.27 937.404,616.27Z" style="fill:rgb(202,103,2);fill-rule:nonzero;"/>
            </g>
        </g>
        <g transform="matrix(1.04749,0,0,1.08988,16.5081,-192.28)">
            <path d="M135.295,891.271L134.523,888.989L134.153,885.671L135.211,880.132L136.75,877.408L135.496,873.675L135.032,869.288L135.757,864.097L137.829,859.341C139.509,856.533 141.814,854.111 144.806,852.131L144.869,852.09C150.562,848.377 156.872,846.514 163.803,846.514C166.335,846.514 169.161,846.808 172.293,847.457C172.903,847.576 173.582,847.688 174.061,847.764C174.256,847.644 174.518,847.476 174.69,847.339C174.776,847.271 174.862,847.204 174.95,847.139L179.231,844.847L183.245,844.193L186.337,844.558L189.197,845.605L191.874,847.396L194.364,850.227L196.256,854.314L196.828,858.46L196.229,862.783L194.847,866.388L193.098,869.277C193.046,870.159 192.942,871.016 192.79,871.85L191.677,875.723L190.637,877.704L191.604,878.452L194.59,882.427L196.425,886.931L197.039,891.718C197.039,896.313 195.537,900.834 192.17,905.157L192.141,905.193C188.8,909.447 184.006,912.775 177.512,914.825L177.488,914.833C173.329,916.136 168.527,916.848 163.065,916.848C155.711,916.848 149.793,915.506 145.222,913.254L145.162,913.224L140.99,910.527L137.519,906.857L135.051,902.214L134.118,896.78L134.748,892.448L135.295,891.271ZM160.31,868.896C160.316,868.985 160.323,869.072 160.331,869.159C160.943,869.173 161.744,869.224 162.733,869.338L162.844,869.351C163.112,869.385 163.385,869.4 163.663,869.4C165.15,869.4 166.538,869.244 167.819,868.884L167.629,868.846L167.512,868.823C166.146,868.538 164.913,868.367 163.803,868.367C162.58,868.367 161.415,868.543 160.31,868.896ZM192.954,865.502L192.947,865.304L192.926,865.13L192.954,865.502ZM141.21,884.065L141.136,883.989C140.937,884.142 140.749,884.3 140.573,884.461L141.21,884.065ZM141.2,883.94L141.269,884.028L143.568,882.6C142.635,882.992 141.854,883.446 141.2,883.94Z" style="fill:rgb(58,31,2);fill-rule:nonzero;"/>
            <g transform="matrix(0.56845,0,0,0.546343,5.33758,-38.5022)">
                <path d="M233.736,1660.83L237.501,1708.39L319.944,1712.55L307.261,1646.56L233.736,1660.83Z" style="fill:rgb(58,31,2);"/>
            </g>
            <g transform="matrix(0.56845,0,0,0.546343,5.33758,-38.5022)">
                <path d="M356.608,1666.38L375.435,1668.36L374.444,1678.66L359.58,1677.87L356.608,1666.38Z" style="fill:rgb(58,31,2);"/>
            </g>
            <g transform="matrix(0.56845,0,0,0.546343,5.33758,-38.5022)">
                <path d="M397.631,1698.28L478.092,1700.07L479.48,1711.36L398.82,1719.49L397.631,1698.28Z" style="fill:rgb(58,31,2);"/>
            </g>
            <g transform="matrix(0.56845,0,0,0.546343,5.33758,-38.5022)">
                <path d="M527.637,1626.94L602.351,1632.09L605.522,1697.89L537.745,1705.62L527.637,1626.94Z" style="fill:rgb(58,31,2);"/>
            </g>
            <g transform="matrix(0.56845,0,0,0.546343,5.33758,-38.5022)">
                <path d="M610.873,1711.16L611.071,1604.94L687.965,1606.92L814.999,1602.56L816.188,1712.35L745.636,1685.4L710.954,1715.13L675.678,1718.89L610.873,1711.16Z" style="fill:rgb(58,31,2);"/>
            </g>
            <g transform="matrix(0.56845,0,0,0.546343,5.33758,-38.5022)">
                <path d="M824.512,1604.15L825.106,1714.34L919.638,1704.43L957.094,1710.37L981.669,1705.22L1022.49,1718.3L1051.82,1714.34L1068.87,1708.79L1228.01,1710.57L1271.01,1706.21L1269.43,1594.83L824.512,1604.15Z" style="fill:rgb(58,31,2);"/>
            </g>
            <path d="M178.82,878.129C178.897,876.922 178.94,875.435 178.962,873.668L176.895,871.396L175.258,867.889L174.725,864.191L175.208,860.589L176.651,857.205L178.748,854.474L181.098,852.475C182.933,851.183 185.918,849.717 190.222,848.443C195.098,846.988 199.263,846.335 202.683,846.303L202.793,846.303L206.161,846.577L209.216,847.49L210.344,847.013L215.555,846.338L219.155,846.651L222.795,847.68L226.189,849.459L229.057,851.835L229.126,851.906L231.466,854.927L233.037,858.075L234.038,861.408L234.412,865.034L233.955,869.047L232.724,872.719L230.817,876.109L228.172,879.129L225.392,881.316L222.022,883.031L221.97,883.045L222.506,884.136L223.092,888.097L222.06,893.415L219.095,897.982L214.974,901.088L210.404,902.713C207.606,903.296 203.503,903.664 198.082,903.664C192.273,903.664 187.883,902.976 184.863,901.959L184.819,901.944L180.448,899.751L177.639,897.193L175.143,892.835L174.373,888.237L174.751,885.056L175.849,882.072L178.372,878.508L178.82,878.129ZM195.323,858.392C194.712,857.832 193.937,857.343 192.958,856.95L195.296,858.399C195.305,858.396 195.314,858.394 195.323,858.392ZM180.767,876.482L181.231,876.09C181.057,876.218 180.904,876.35 180.767,876.482ZM213.364,875.044C212.991,874.787 212.529,874.541 211.946,874.362L213.364,875.044Z" style="fill:rgb(58,31,2);fill-rule:nonzero;"/>
            <path d="M214.366,872.524L214.173,872.169L213.117,866.687L214.216,861.069L216.835,856.64C218.584,854.46 220.903,852.491 223.901,850.855L224.02,850.792C230.013,847.613 236.279,846.057 242.802,846.057C249.597,846.057 255.308,847.927 260.033,851.364L260.076,851.395L263.962,855.021L266.857,859.754C267.876,862.173 268.585,865.472 268.585,869.71L268.584,869.851L268.515,875.027C268.516,875.346 268.524,875.679 268.535,876.01L270.15,877.387L271.932,880.696L272.628,884.862L271.583,890.377L269.169,894.713C267.374,897.137 265.078,899.188 262.331,900.763L256.892,903.087L250.888,903.91L246.917,903.542L242.907,902.31L242.882,902.296C240.065,903.371 237.051,903.91 233.837,903.91C227.998,903.91 223.356,902.381 219.745,899.885L219.703,899.856L215.994,896.528L213.265,892.515L211.557,888.025L210.972,883.245L211.39,879.266L212.668,875.41L214.366,872.524ZM256.604,893.766C257.137,893.94 257.704,894.077 258.31,894.171L256.604,893.766ZM237.736,898.767L236.236,897.352C236.719,897.92 237.223,898.386 237.736,898.767ZM263.874,873.243C263.409,872.992 262.788,872.73 261.958,872.601L263.874,873.243Z" style="fill:rgb(58,31,2);fill-rule:nonzero;"/>
            <path d="M284.841,847.859L287.783,846.838C289.404,846.49 291.132,846.303 292.971,846.303C298.622,846.303 303.425,847.903 307.462,850.863L307.536,850.918L311.474,854.706L314.292,859.568C315.18,861.823 315.892,865.11 316.105,869.48L316.109,869.574L316.526,880.057L318.707,883.402L319.739,888.589L318.964,893.169L316.444,897.513L313.621,900.037L309.276,902.161C306.731,902.998 302.217,903.664 295.678,903.664C290.514,903.664 286.845,902.917 284.577,902.031L284.473,902.085C281.732,903.02 277.482,903.699 271.667,903.699C264.756,903.699 260.055,902.212 257.291,900.497L254.717,898.501L252.453,895.673L250.983,892.229L250.524,888.73L251.072,884.852L252.675,881.469L253.846,880.329C253.86,880.145 253.873,879.96 253.884,879.781C253.999,877.915 254.069,875.98 254.097,873.977L252.214,871.747L250.638,868.356L250.102,864.683L250.471,861.55L251.666,858.412L253.57,855.706L255.834,853.672C257.14,852.721 259.731,851.327 263.798,849.872L263.833,849.86C266.401,848.95 268.876,848.183 271.256,847.554C274.79,846.621 277.247,846.338 278.557,846.338L281.37,846.613L284.222,847.506L284.841,847.859ZM256.179,875.702C256.349,875.858 256.543,876.008 256.765,876.151L256.179,875.702ZM271.174,894.236L270.501,894.893C270.789,894.675 271.005,894.449 271.174,894.236Z" style="fill:rgb(58,31,2);fill-rule:nonzero;"/>
            <path d="M330.731,846.057C337.544,846.057 343.494,847.902 348.632,851.438C352.367,854.004 355.391,857.323 357.655,861.436L357.681,861.484C360.012,865.771 361.154,870.251 361.154,874.913C361.154,883.304 357.558,890.562 349.863,896.44L349.859,896.443C343.346,901.414 335.895,903.91 327.496,903.91C318.625,903.91 311.534,901.151 306.039,896.105C300.441,890.971 297.459,884.353 297.459,876.109C297.459,867.239 300.846,860.019 307.454,854.378C313.852,848.89 321.588,846.057 330.731,846.057ZM333.063,873.656C332.313,873.503 331.526,873.443 330.731,873.443C328.475,873.443 326.759,874.277 325.38,875.401C325.408,875.53 325.438,875.658 325.467,875.786C326.136,875.931 326.827,876.001 327.517,876.025L327.918,876.031C329.996,876.031 331.742,875.412 333.178,874.217C333.143,874.041 333.106,873.862 333.069,873.683C333.067,873.674 333.065,873.665 333.063,873.656Z" style="fill:rgb(58,31,2);fill-rule:nonzero;"/>
            <path d="M382.354,879.195L383.288,879.997L385.556,883.662L386.468,888.519L385.533,893.476L382.993,897.639L379.389,900.671C379.389,900.671 375.277,902.449 375.52,902.377C373.148,903.102 369.167,903.664 363.533,903.664C357.044,903.664 352.526,902.884 350.007,901.947L346.246,900.025L343.07,897.14L340.713,893.226L339.754,888.273L340.777,883.217L343.213,879.556L344.111,878.803C344.282,876.348 344.359,873.282 344.359,869.605C344.359,866.444 344.349,864.048 344.259,862.419L343.747,862.063L341.409,859.533L339.408,855.453L338.84,851.464L339.272,848.018L340.569,844.747L342.497,842.026L344.716,839.959C346.619,838.481 349.556,836.917 353.725,835.661C355.705,835.06 358.266,834.468 361.416,833.924C364.912,833.32 367.463,833.084 369.052,833.084L371.765,833.319L374.761,834.189L377.706,835.856L380.123,838.18L382.369,842.256L383.199,847.456C383.199,848.331 383.085,850.332 382.814,853.462C382.531,857.375 382.365,860.964 382.32,864.229L382.32,875.441C382.32,876.793 382.335,878.086 382.354,879.195ZM367.477,895.603C367.682,895.738 367.911,895.868 368.171,895.985L367.477,895.603ZM359.099,895.248L358.174,895.833C358.558,895.661 358.858,895.454 359.099,895.248Z" style="fill:rgb(58,31,2);fill-rule:nonzero;"/>
            <path d="M367.371,872.524L367.179,872.169L366.122,866.687L367.221,861.069L369.841,856.64C371.59,854.46 373.909,852.491 376.907,850.855L377.026,850.792C383.018,847.613 389.285,846.057 395.808,846.057C402.603,846.057 408.313,847.927 413.039,851.364L413.081,851.395L416.967,855.021L419.862,859.754C420.882,862.173 421.591,865.472 421.591,869.71L421.59,869.851L421.521,875.027C421.522,875.346 421.529,875.679 421.541,876.01L423.156,877.387L424.938,880.696L425.634,884.862L424.589,890.377L422.174,894.713C420.38,897.137 418.084,899.188 415.337,900.763L409.897,903.087L403.894,903.91L399.923,903.542L395.912,902.31L395.888,902.296C393.071,903.371 390.057,903.91 386.843,903.91C381.003,903.91 376.362,902.381 372.751,899.885L372.708,899.856L369,896.528L366.271,892.515L364.562,888.025L363.978,883.245L364.396,879.266L365.674,875.41L367.371,872.524ZM390.741,898.767L389.242,897.352C389.725,897.92 390.228,898.386 390.741,898.767ZM416.88,873.243C416.415,872.992 415.794,872.73 414.964,872.601L416.88,873.243ZM409.61,893.766C410.142,893.94 410.71,894.077 411.315,894.171L409.61,893.766Z" style="fill:rgb(58,31,2);fill-rule:nonzero;"/>
            <path d="M476.648,879.714L477.422,883.913L476.972,887.505L475.738,890.752L473.02,894.608C472.147,895.557 471.098,896.509 469.874,897.421C464.126,901.723 457.505,903.91 449.986,903.91C442.03,903.91 435.414,901.463 430.034,896.841L429.984,896.797C427.364,894.519 425.18,891.78 423.471,888.552L423.442,888.498C421.25,884.298 420.16,879.875 420.16,875.23C420.16,868.9 422.094,863.215 425.936,858.165C429.212,853.85 433.384,850.636 438.423,848.524C442.221,846.923 446.329,846.092 450.76,846.092C458.1,846.092 464.299,848.289 469.439,852.458C472.122,854.624 474.286,857.19 475.932,860.153C478.012,863.874 478.933,867.537 478.933,871.081L478.373,875.747L476.648,879.714Z" style="fill:rgb(58,31,2);fill-rule:nonzero;"/>
            <path d="M499.887,879.195L500.821,879.997L503.089,883.662L504.001,888.519L503.066,893.476L500.526,897.639L496.922,900.671C496.922,900.671 492.81,902.449 493.053,902.377C490.681,903.102 486.7,903.664 481.066,903.664C474.577,903.664 470.059,902.884 467.54,901.947L463.779,900.025L460.603,897.14L458.246,893.226L457.287,888.273L458.31,883.217L460.746,879.556L461.644,878.803C461.815,876.348 461.892,873.282 461.892,869.605C461.892,866.444 461.882,864.048 461.792,862.419L461.28,862.063L458.942,859.533L456.941,855.453L456.373,851.464L456.805,848.018L458.102,844.747L460.03,842.026L462.249,839.959C464.152,838.481 467.089,836.917 471.258,835.661C473.238,835.06 475.799,834.468 478.949,833.924C482.445,833.32 484.996,833.084 486.585,833.084L489.298,833.319L492.294,834.189L495.239,835.856L497.656,838.18L499.902,842.256L500.732,847.456C500.732,848.331 500.618,850.332 500.347,853.462C500.064,857.375 499.898,860.964 499.853,864.229L499.853,875.441C499.853,876.793 499.868,878.086 499.887,879.195ZM485.01,895.603C485.215,895.738 485.444,895.868 485.704,895.985L485.01,895.603ZM476.632,895.248L475.707,895.833C476.091,895.661 476.391,895.454 476.632,895.248Z" style="fill:rgb(58,31,2);fill-rule:nonzero;"/>
            <path d="M538.245,879.714L539.018,883.913L538.568,887.505L537.335,890.752L534.617,894.608C533.743,895.557 532.695,896.509 531.47,897.421C525.723,901.723 519.102,903.91 511.583,903.91C503.627,903.91 497.011,901.463 491.631,896.841L491.58,896.797C488.96,894.519 486.776,891.78 485.067,888.552L485.039,888.498C482.846,884.298 481.757,879.875 481.757,875.23C481.757,868.9 483.691,863.215 487.532,858.165C490.809,853.85 494.981,850.636 500.02,848.524C503.818,846.923 507.926,846.092 512.356,846.092C519.697,846.092 525.896,848.289 531.036,852.458C533.719,854.624 535.883,857.19 537.529,860.153C539.608,863.874 540.53,867.537 540.53,871.081L539.969,875.747L538.245,879.714Z" style="fill:rgb(58,31,2);fill-rule:nonzero;"/>
            <path d="M554.481,848.144L555.399,847.671C557.643,846.928 561.302,846.338 566.428,846.338C569.284,846.338 571.618,846.628 573.445,847.071L578.802,849.314L581.177,851.235L583.245,853.928L584.564,857.145L584.969,860.359L584.359,864.263L582.481,867.932L579.292,871.048L576.511,872.401C576.431,872.551 576.352,872.701 576.278,872.846L576.27,872.861L567.169,890.572C565.148,894.512 563.304,897.174 561.89,898.706L557.148,902.324L553.856,903.543L550.221,903.981L547.118,903.677L543.929,902.661L541.04,900.947C541.04,900.947 538.757,898.786 538.939,898.994C536.942,896.768 535.182,894.255 533.676,891.44L533.645,891.381L524.238,873.527L522.567,872.789L519.654,870.386L516.95,866.03L516.106,861.343L516.818,857.087L518.935,853.223L522.373,850.078L527.414,847.777C530.331,846.908 534.921,846.303 541.221,846.303C546.767,846.303 550.834,846.875 553.46,847.674L554.481,848.144ZM542.739,856.335L543.664,855.276C543.301,855.618 542.995,855.973 542.739,856.335ZM566.355,853.057L567.485,852.579C567.067,852.711 566.693,852.873 566.355,853.057ZM525.779,874.207C526.096,874.388 526.446,874.548 526.836,874.674L525.779,874.207Z" style="fill:rgb(58,31,2);fill-rule:nonzero;"/>
            <path d="M563.13,872.524L562.937,872.169L561.881,866.687L562.98,861.069L565.599,856.64C567.348,854.46 569.667,852.491 572.666,850.855L572.784,850.792C578.777,847.613 585.044,846.057 591.566,846.057C598.361,846.057 604.072,847.927 608.797,851.364L608.84,851.395L612.726,855.021L615.621,859.754C616.641,862.173 617.349,865.472 617.349,869.71L617.348,869.851L617.279,875.027C617.28,875.346 617.288,875.679 617.299,876.01L618.915,877.387L620.696,880.696L621.392,884.862L620.347,890.377L617.933,894.713C616.138,897.137 613.842,899.188 611.095,900.763L605.656,903.087L599.652,903.91L595.682,903.542L591.671,902.31L591.646,902.296C588.83,903.371 585.815,903.91 582.601,903.91C576.762,903.91 572.12,902.381 568.509,899.885L568.467,899.856L564.758,896.528L562.029,892.515L560.321,888.025L559.736,883.245L560.154,879.266L561.432,875.41L563.13,872.524ZM612.638,873.243C612.173,872.992 611.552,872.73 610.722,872.601L612.638,873.243ZM605.368,893.766C605.901,893.94 606.468,894.077 607.074,894.171L605.368,893.766ZM586.5,898.767L585,897.352C585.483,897.92 585.987,898.386 586.5,898.767Z" style="fill:rgb(58,31,2);fill-rule:nonzero;"/>
            <path d="M642.526,846.49L645.411,846.988L648.536,848.695L650.651,850.721L652.704,854.446L653.456,859.48L653.456,861.554L652.896,866.019L650.789,870.319L648.616,872.543L647.866,873.011L648.749,873.61L651.141,876.294L653.067,880.206L653.737,884.546L653.389,887.7L652.408,890.626L650.153,894.243C650.153,894.243 647.575,896.84 647.52,896.906C642.107,901.518 635.584,903.91 627.884,903.91C620.805,903.91 615.222,901.646 610.93,897.642C606.507,893.516 604.07,888.165 604.07,881.417L604.07,873.322L602.155,872.142L600.484,870.52L598.331,866.636L597.671,862.081L597.671,860.534C597.671,860.418 597.673,860.301 597.677,860.184L598.027,857.582L599.101,854.715L601.034,851.984L603.572,849.877L603.624,849.844L619.726,839.719C619.967,839.567 620.213,839.425 620.465,839.292L624.144,837.96L627.427,837.619L630.275,837.619L633.338,837.94L636.002,838.823L638.472,840.319L640.721,842.622L642.454,845.997L642.526,846.49ZM633.065,872.349L633.057,872.351L633.043,872.359L633.065,872.349ZM643.132,891.784C643.69,891.606 644.246,891.368 644.799,891.062L643.132,891.784Z" style="fill:rgb(58,31,2);fill-rule:nonzero;"/>
            <path d="M687.278,879.714L688.051,883.913L687.601,887.505L686.368,890.752L683.65,894.608C682.776,895.557 681.728,896.509 680.503,897.421C674.755,901.723 668.135,903.91 660.616,903.91C652.66,903.91 646.044,901.463 640.664,896.841L640.613,896.797C637.993,894.519 635.809,891.78 634.1,888.552L634.072,888.498C631.879,884.298 630.79,879.875 630.79,875.23C630.79,868.9 632.724,863.215 636.565,858.165C639.842,853.85 644.014,850.636 649.053,848.524C652.851,846.923 656.958,846.092 661.389,846.092C668.73,846.092 674.928,848.289 680.069,852.458C682.752,854.624 684.916,857.19 686.562,860.153C688.641,863.874 689.563,867.537 689.563,871.081L689.002,875.747L687.278,879.714Z" style="fill:rgb(58,31,2);fill-rule:nonzero;"/>
            <path d="M689.336,846.896L689.673,845.28L692.431,841.182L696.276,838.24C697.731,837.416 699.573,836.632 701.846,835.989L701.903,835.973C709.448,833.881 714.549,833.049 717.113,833.049L720.523,833.392L723.104,834.179L727.388,836.939L730.301,841.055L731.139,843.553L731.506,846.859L731.506,877.938L732.963,879.691L734.683,883.507L735.162,887.148L734.878,889.871L734.021,892.514L731.109,896.731L727.046,899.725C725.497,900.562 723.532,901.35 721.111,901.982L721.05,901.998C716.68,903.113 712.308,903.664 707.938,903.664L705.074,903.425L702.556,902.702C700.126,903.514 697.582,903.91 694.93,903.91C688.399,903.91 682.451,901.649 677.227,896.804L677.149,896.731C674.511,894.238 672.373,891.369 670.763,888.158C668.552,883.837 667.494,879.45 667.494,875.019C667.494,869.844 668.875,864.838 671.737,860.03C674.504,855.38 678.287,851.822 683.052,849.324L683.092,849.303C685.184,848.218 687.267,847.423 689.336,846.896ZM714.324,892.227C714.489,892.426 714.692,892.628 714.955,892.816L714.34,892.224C714.335,892.225 714.329,892.226 714.324,892.227ZM696.626,874.293C697.739,875 699.054,875.401 700.592,875.46L701.047,875.469C702.395,875.469 703.712,875.269 704.871,874.676C703.681,873.884 702.28,873.514 700.695,873.514C699.255,873.514 697.852,873.711 696.626,874.293Z" style="fill:rgb(58,31,2);fill-rule:nonzero;"/>
        </g>
        <g id="Granola-Elevated" serif:id="Granola Elevated" transform="matrix(1.04749,0,0,1.08988,16.5081,-192.28)">
            <path d="M183.245,855.12C183.83,855.12 184.346,855.454 184.791,856.122C185.237,856.79 185.459,857.569 185.459,858.46C185.459,859.421 185.161,860.511 184.563,861.73C183.965,862.948 183.245,863.921 182.401,864.648C181.862,865.116 181.592,865.491 181.592,865.773C181.592,865.843 181.616,866.124 181.663,866.616C181.733,867.109 181.768,867.554 181.768,867.952C181.768,870.741 180.83,873.085 178.955,874.984C177.268,876.671 175.094,877.984 172.434,878.921C169.774,879.859 166.85,880.327 163.663,880.327C162.889,880.327 162.127,880.28 161.377,880.187C160.768,880.116 160.299,880.081 159.971,880.081C158.729,880.081 158.108,880.702 158.108,881.944C158.108,882.741 158.512,883.368 159.321,883.825C160.129,884.282 161.225,884.511 162.608,884.511C163.545,884.511 164.928,884.382 166.756,884.124C170.6,883.585 173.436,883.316 175.264,883.316C178.03,883.316 180.174,883.773 181.698,884.687C182.916,885.39 183.883,886.374 184.598,887.64C185.313,888.905 185.67,890.265 185.67,891.718C185.67,894.085 184.803,896.382 183.069,898.609C181.006,901.234 177.971,903.179 173.963,904.444C170.823,905.429 167.19,905.921 163.065,905.921C157.862,905.921 153.643,905.124 150.409,903.53C148.909,902.78 147.713,901.796 146.823,900.577C145.932,899.359 145.487,898.093 145.487,896.78C145.487,895.866 145.739,895.023 146.243,894.249C146.746,893.476 147.385,892.925 148.159,892.597C148.862,892.316 149.213,892.011 149.213,891.683C149.213,891.425 148.92,891.05 148.334,890.558C146.459,888.987 145.522,887.359 145.522,885.671C145.522,884.546 145.973,883.386 146.875,882.191C147.778,880.995 148.897,880.069 150.233,879.413C150.795,879.132 151.077,878.851 151.077,878.569C151.077,878.241 150.725,877.749 150.022,877.093C147.608,874.866 146.401,872.265 146.401,869.288C146.401,867.718 146.829,866.218 147.684,864.788C148.539,863.359 149.729,862.14 151.252,861.132C155.026,858.671 159.209,857.441 163.803,857.441C165.631,857.441 167.67,857.675 169.92,858.144C172.053,858.566 173.518,858.776 174.315,858.776C176.87,858.776 179.413,857.769 181.944,855.753C182.506,855.331 182.94,855.12 183.245,855.12ZM164.155,862.398C162.983,862.398 162.039,862.843 161.325,863.734C160.61,864.624 160.252,865.808 160.252,867.284C160.252,869.816 160.639,871.843 161.413,873.366C162.186,874.89 163.205,875.651 164.471,875.651C165.713,875.651 166.698,875.177 167.424,874.228C168.151,873.278 168.514,872.007 168.514,870.413C168.514,867.905 168.133,865.954 167.371,864.56C166.61,863.165 165.538,862.444 164.155,862.398ZM156.491,894.39C155.905,894.39 155.612,894.73 155.612,895.409C155.612,896.792 156.362,897.911 157.862,898.767C159.362,899.622 161.307,900.05 163.698,900.05C165.995,900.05 167.793,899.745 169.094,899.136C170.395,898.526 171.045,897.671 171.045,896.569C171.045,895.984 170.799,895.485 170.307,895.075C169.815,894.665 169.205,894.46 168.479,894.46C168.104,894.46 167.565,894.507 166.862,894.601C165.549,894.812 164.084,894.917 162.467,894.917C161.272,894.917 160.123,894.859 159.022,894.741C158.202,894.671 157.534,894.577 157.018,894.46C156.784,894.413 156.608,894.39 156.491,894.39Z" style="fill:rgb(238,155,0);fill-rule:nonzero;"/>
            <path d="M202.793,857.23C204.035,857.23 204.791,857.405 205.06,857.757C205.33,858.109 205.57,859.234 205.781,861.132C205.898,862.163 206.262,862.679 206.871,862.679C207.34,862.679 207.785,862.339 208.207,861.659C210.082,858.73 212.531,857.265 215.555,857.265C217.687,857.265 219.433,857.956 220.793,859.339C221.449,860.019 221.988,860.892 222.41,861.958C222.832,863.025 223.043,864.05 223.043,865.034C223.043,866.136 222.785,867.267 222.269,868.427C221.754,869.587 221.086,870.542 220.265,871.292C218.765,872.722 216.926,873.437 214.746,873.437C213.551,873.437 212.549,873.226 211.74,872.804C210.931,872.382 209.871,871.526 208.558,870.237C208.066,869.745 207.609,869.499 207.187,869.499C206.531,869.499 206.103,869.868 205.904,870.607C205.705,871.345 205.605,872.898 205.605,875.265C205.605,878.804 205.734,881.218 205.992,882.507C206.156,883.21 206.385,883.696 206.678,883.966C206.971,884.235 207.598,884.511 208.558,884.792C210.668,885.425 211.723,886.526 211.723,888.097C211.723,889.058 211.383,889.896 210.703,890.61C210.023,891.325 209.121,891.8 207.996,892.034C205.746,892.503 202.441,892.737 198.082,892.737C193.933,892.737 190.781,892.374 188.625,891.648C186.703,890.991 185.742,889.855 185.742,888.237C185.742,887.019 186.445,885.929 187.851,884.968C188.531,884.523 189,884.118 189.258,883.755C189.515,883.392 189.691,882.894 189.785,882.261C190.16,880.128 190.348,876.179 190.348,870.413C190.348,869.359 190.23,868.603 189.996,868.146C189.762,867.689 189.293,867.319 188.59,867.038C186.926,866.382 186.094,865.433 186.094,864.191C186.094,863.066 186.668,862.099 187.816,861.29C188.965,860.482 190.887,859.679 193.582,858.882C197.191,857.804 200.262,857.253 202.793,857.23Z" style="fill:rgb(238,155,0);fill-rule:nonzero;"/>
            <path d="M242.802,856.984C246.88,856.984 250.337,858.015 253.173,860.077C254.673,861.179 255.722,862.439 256.32,863.857C256.917,865.275 257.216,867.226 257.216,869.71L257.146,874.948C257.146,878.581 257.404,880.937 257.919,882.015C258.177,882.53 258.423,882.859 258.658,882.999C258.892,883.14 259.384,883.269 260.134,883.386C260.884,883.503 261.259,883.995 261.259,884.862C261.259,885.987 260.808,887.159 259.906,888.378C259.003,889.597 257.837,890.616 256.408,891.437C254.65,892.468 252.81,892.984 250.888,892.984C248.427,892.984 246.482,892.14 245.052,890.452C244.56,889.843 244.103,889.538 243.681,889.538C243.212,889.538 242.591,889.831 241.818,890.417C239.474,892.128 236.814,892.984 233.837,892.984C230.767,892.984 228.283,892.327 226.384,891.015C225.142,890.148 224.158,889.017 223.431,887.622C222.704,886.228 222.341,884.769 222.341,883.245C222.341,880.808 223.325,878.651 225.294,876.776C228.365,873.823 232.958,872.335 239.075,872.312C240.435,872.312 241.29,872.177 241.642,871.907C241.993,871.638 242.169,871.011 242.169,870.026C242.169,867.542 241.911,865.743 241.396,864.63C240.88,863.517 240.036,862.96 238.865,862.96C238.161,862.96 237.534,863.171 236.984,863.593C236.433,864.015 235.747,864.788 234.927,865.913C232.841,868.89 230.661,870.378 228.388,870.378C227.24,870.378 226.302,870.038 225.575,869.359C224.849,868.679 224.486,867.788 224.486,866.687C224.486,865.562 224.937,864.437 225.839,863.312C226.741,862.187 227.966,861.202 229.513,860.359C233.755,858.109 238.185,856.984 242.802,856.984ZM240.447,877.339C239.415,877.339 238.519,877.761 237.757,878.605C236.995,879.448 236.615,880.456 236.615,881.628C236.615,882.753 236.884,883.661 237.423,884.353C237.962,885.044 238.677,885.39 239.568,885.39C241.443,885.39 242.38,883.808 242.38,880.644C242.38,879.355 242.245,878.487 241.976,878.042C241.706,877.597 241.197,877.362 240.447,877.339Z" style="fill:rgb(238,155,0);fill-rule:nonzero;"/>
            <path d="M304.749,869.991L305.241,882.366C305.288,883.304 305.434,883.995 305.68,884.441C305.926,884.886 306.647,885.741 307.843,887.007C308.194,887.382 308.37,887.909 308.37,888.589C308.37,890.136 307.444,891.214 305.593,891.823C303.741,892.433 300.436,892.737 295.678,892.737C292.444,892.737 290.159,892.456 288.823,891.894C287.44,891.308 286.749,890.359 286.749,889.046C286.749,888.577 286.819,888.232 286.96,888.009C287.1,887.786 287.569,887.241 288.366,886.374C289.303,885.39 289.772,882.109 289.772,876.53C289.772,873.296 289.397,870.905 288.647,869.359C288.038,868.116 286.913,867.495 285.272,867.495C283.702,867.495 282.624,867.999 282.038,869.007C281.452,870.015 281.159,871.843 281.159,874.491L281.159,881.452C281.159,882.835 281.247,883.784 281.423,884.3C281.598,884.816 282.178,885.812 283.163,887.288C283.421,887.71 283.55,888.191 283.55,888.73C283.55,890.112 282.589,891.132 280.667,891.788C278.745,892.444 275.745,892.773 271.667,892.773C265.151,892.773 261.893,891.425 261.893,888.73C261.893,888.167 261.993,887.739 262.192,887.446C262.391,887.153 262.866,886.737 263.616,886.198C264.225,885.753 264.612,885.243 264.776,884.669C264.94,884.095 265.093,882.683 265.233,880.433C265.397,877.761 265.479,874.96 265.479,872.03C265.479,870.413 265.356,869.353 265.11,868.849C264.864,868.345 264.155,867.73 262.983,867.003C261.975,866.37 261.471,865.597 261.471,864.683C261.471,863.745 261.882,862.978 262.702,862.38C263.522,861.782 265.21,861.026 267.764,860.112C270.014,859.316 272.182,858.642 274.268,858.091C276.354,857.54 277.784,857.265 278.557,857.265C279.26,857.265 279.852,857.523 280.333,858.038C280.813,858.554 281.053,859.163 281.053,859.866C281.053,859.937 281.042,860.23 281.018,860.745C280.995,860.933 280.983,861.097 280.983,861.237C280.983,862.362 281.452,862.925 282.389,862.925C282.952,862.925 283.55,862.48 284.182,861.589C286.198,858.683 289.128,857.23 292.971,857.23C295.925,857.23 298.456,858.003 300.565,859.55C302.042,860.651 303.073,861.946 303.659,863.435C304.245,864.923 304.608,867.109 304.749,869.991Z" style="fill:rgb(238,155,0);fill-rule:nonzero;"/>
            <path d="M330.731,856.984C335.02,856.984 338.781,858.097 342.016,860.323C344.336,861.917 346.199,863.991 347.606,866.546C349.059,869.218 349.785,872.007 349.785,874.913C349.785,879.999 347.453,884.323 342.789,887.886C338.336,891.284 333.238,892.984 327.496,892.984C321.895,892.984 317.36,891.39 313.891,888.202C310.516,885.109 308.828,881.077 308.828,876.109C308.828,870.577 310.891,866.054 315.016,862.538C319.328,858.835 324.567,856.984 330.731,856.984ZM327.918,865.105C326.887,865.105 326.061,865.485 325.44,866.247C324.819,867.009 324.508,868.023 324.508,869.288C324.508,870.694 324.772,872.61 325.299,875.036C325.826,877.462 326.453,879.612 327.18,881.487C327.906,883.409 329.09,884.37 330.731,884.37C332.817,884.37 333.86,883.046 333.86,880.398C333.86,878.429 333.596,876.191 333.069,873.683C332.541,871.175 331.903,869.136 331.153,867.566C330.379,865.972 329.301,865.151 327.918,865.105Z" style="fill:rgb(238,155,0);fill-rule:nonzero;"/>
            <path d="M370.951,864.155L370.951,875.441C370.951,880.433 371.027,883.339 371.179,884.159C371.332,884.98 371.912,885.612 372.92,886.058C373.787,886.433 374.367,886.784 374.66,887.112C374.953,887.441 375.099,887.909 375.099,888.519C375.099,889.292 374.824,889.995 374.273,890.628C373.722,891.261 372.99,891.706 372.076,891.964C370.388,892.48 367.541,892.737 363.533,892.737C359.009,892.737 355.834,892.398 354.005,891.718C353.162,891.413 352.47,890.939 351.931,890.294C351.392,889.65 351.123,888.976 351.123,888.273C351.123,887.71 351.269,887.276 351.562,886.972C351.855,886.667 352.494,886.304 353.478,885.882C354.392,885.484 354.955,884.394 355.166,882.612C355.541,879.566 355.728,875.23 355.728,869.605C355.728,863.886 355.564,860.206 355.236,858.566C354.908,856.925 354.088,855.706 352.775,854.909C351.791,854.347 351.117,853.814 350.754,853.31C350.39,852.806 350.209,852.191 350.209,851.464C350.209,850.316 350.759,849.314 351.861,848.458C352.963,847.603 354.72,846.812 357.134,846.085C358.752,845.593 360.849,845.124 363.427,844.679C366.005,844.234 367.88,844.011 369.052,844.011C370.904,844.011 371.83,845.159 371.83,847.456C371.83,848.206 371.713,849.929 371.478,852.624C371.173,856.819 370.998,860.663 370.951,864.155Z" style="fill:rgb(238,155,0);fill-rule:nonzero;"/>
            <path d="M395.808,856.984C399.886,856.984 403.343,858.015 406.179,860.077C407.679,861.179 408.728,862.439 409.325,863.857C409.923,865.275 410.222,867.226 410.222,869.71L410.151,874.948C410.151,878.581 410.409,880.937 410.925,882.015C411.183,882.53 411.429,882.859 411.663,882.999C411.898,883.14 412.39,883.269 413.14,883.386C413.89,883.503 414.265,883.995 414.265,884.862C414.265,885.987 413.814,887.159 412.911,888.378C412.009,889.597 410.843,890.616 409.413,891.437C407.655,892.468 405.815,892.984 403.894,892.984C401.433,892.984 399.487,892.14 398.058,890.452C397.565,889.843 397.108,889.538 396.687,889.538C396.218,889.538 395.597,889.831 394.823,890.417C392.48,892.128 389.819,892.984 386.843,892.984C383.773,892.984 381.288,892.327 379.39,891.015C378.148,890.148 377.163,889.017 376.437,887.622C375.71,886.228 375.347,884.769 375.347,883.245C375.347,880.808 376.331,878.651 378.3,876.776C381.37,873.823 385.964,872.335 392.081,872.312C393.44,872.312 394.296,872.177 394.648,871.907C394.999,871.638 395.175,871.011 395.175,870.026C395.175,867.542 394.917,865.743 394.401,864.63C393.886,863.517 393.042,862.96 391.87,862.96C391.167,862.96 390.54,863.171 389.989,863.593C389.439,864.015 388.753,864.788 387.933,865.913C385.847,868.89 383.667,870.378 381.394,870.378C380.245,870.378 379.308,870.038 378.581,869.359C377.855,868.679 377.491,867.788 377.491,866.687C377.491,865.562 377.942,864.437 378.845,863.312C379.747,862.187 380.972,861.202 382.519,860.359C386.761,858.109 391.19,856.984 395.808,856.984ZM393.452,877.339C392.421,877.339 391.524,877.761 390.763,878.605C390.001,879.448 389.62,880.456 389.62,881.628C389.62,882.753 389.89,883.661 390.429,884.353C390.968,885.044 391.683,885.39 392.573,885.39C394.448,885.39 395.386,883.808 395.386,880.644C395.386,879.355 395.251,878.487 394.981,878.042C394.712,877.597 394.202,877.362 393.452,877.339Z" style="fill:rgb(238,155,0);fill-rule:nonzero;"/>
            <path d="M464.154,876.284L447.631,876.284C446.904,876.284 446.541,876.601 446.541,877.234C446.541,878.757 447.367,880.192 449.019,881.54C450.672,882.888 452.447,883.562 454.346,883.562C455.471,883.562 456.719,883.345 458.09,882.911C459.461,882.478 460.592,881.944 461.482,881.312C462.279,880.749 462.912,880.468 463.381,880.468C463.99,880.468 464.588,880.843 465.174,881.593C465.76,882.343 466.053,883.116 466.053,883.913C466.053,885.601 464.998,887.23 462.889,888.8C459.162,891.589 454.861,892.984 449.986,892.984C445.064,892.984 440.939,891.554 437.611,888.694C435.994,887.288 434.658,885.589 433.603,883.597C432.221,880.948 431.529,878.159 431.529,875.23C431.529,871.292 432.725,867.753 435.115,864.612C437.178,861.894 439.803,859.866 442.99,858.53C445.381,857.523 447.971,857.019 450.76,857.019C455.213,857.019 458.998,858.284 462.115,860.816C463.685,862.081 464.951,863.581 465.912,865.316C467.014,867.284 467.564,869.206 467.564,871.081C467.564,872.605 467.248,873.853 466.615,874.825C465.982,875.798 465.162,876.284 464.154,876.284ZM448.545,869.71L452.096,869.71C453.596,869.71 454.346,869.019 454.346,867.636C454.346,866.37 453.982,865.339 453.256,864.542C452.529,863.745 451.58,863.347 450.408,863.347C449.096,863.347 448.064,863.862 447.314,864.894C446.611,865.855 446.26,866.827 446.26,867.812C446.26,868.515 446.43,869.007 446.769,869.288C447.109,869.569 447.701,869.71 448.545,869.71Z" style="fill:rgb(238,155,0);fill-rule:nonzero;"/>
            <path d="M488.484,864.155L488.484,875.441C488.484,880.433 488.56,883.339 488.712,884.159C488.865,884.98 489.445,885.612 490.453,886.058C491.32,886.433 491.9,886.784 492.193,887.112C492.486,887.441 492.632,887.909 492.632,888.519C492.632,889.292 492.357,889.995 491.806,890.628C491.255,891.261 490.523,891.706 489.609,891.964C487.921,892.48 485.074,892.737 481.066,892.737C476.542,892.737 473.367,892.398 471.538,891.718C470.695,891.413 470.003,890.939 469.464,890.294C468.925,889.65 468.656,888.976 468.656,888.273C468.656,887.71 468.802,887.276 469.095,886.972C469.388,886.667 470.027,886.304 471.011,885.882C471.925,885.484 472.488,884.394 472.699,882.612C473.074,879.566 473.261,875.23 473.261,869.605C473.261,863.886 473.097,860.206 472.769,858.566C472.441,856.925 471.62,855.706 470.308,854.909C469.324,854.347 468.65,853.814 468.286,853.31C467.923,852.806 467.742,852.191 467.742,851.464C467.742,850.316 468.292,849.314 469.394,848.458C470.495,847.603 472.253,846.812 474.667,846.085C476.285,845.593 478.382,845.124 480.96,844.679C483.538,844.234 485.413,844.011 486.585,844.011C488.437,844.011 489.363,845.159 489.363,847.456C489.363,848.206 489.245,849.929 489.011,852.624C488.706,856.819 488.531,860.663 488.484,864.155Z" style="fill:rgb(238,155,0);fill-rule:nonzero;"/>
            <path d="M525.751,876.284L509.227,876.284C508.501,876.284 508.138,876.601 508.138,877.234C508.138,878.757 508.964,880.192 510.616,881.54C512.268,882.888 514.044,883.562 515.942,883.562C517.067,883.562 518.315,883.345 519.686,882.911C521.057,882.478 522.188,881.944 523.079,881.312C523.876,880.749 524.509,880.468 524.977,880.468C525.587,880.468 526.184,880.843 526.77,881.593C527.356,882.343 527.649,883.116 527.649,883.913C527.649,885.601 526.595,887.23 524.485,888.8C520.759,891.589 516.458,892.984 511.583,892.984C506.661,892.984 502.536,891.554 499.208,888.694C497.591,887.288 496.255,885.589 495.2,883.597C493.817,880.948 493.126,878.159 493.126,875.23C493.126,871.292 494.321,867.753 496.712,864.612C498.774,861.894 501.399,859.866 504.587,858.53C506.977,857.523 509.567,857.019 512.356,857.019C516.809,857.019 520.595,858.284 523.712,860.816C525.282,862.081 526.548,863.581 527.509,865.316C528.61,867.284 529.161,869.206 529.161,871.081C529.161,872.605 528.845,873.853 528.212,874.825C527.579,875.798 526.759,876.284 525.751,876.284ZM510.141,869.71L513.692,869.71C515.192,869.71 515.942,869.019 515.942,867.636C515.942,866.37 515.579,865.339 514.852,864.542C514.126,863.745 513.177,863.347 512.005,863.347C510.692,863.347 509.661,863.862 508.911,864.894C508.208,865.855 507.856,866.827 507.856,867.812C507.856,868.515 508.026,869.007 508.366,869.288C508.706,869.569 509.298,869.71 510.141,869.71Z" style="fill:rgb(238,155,0);fill-rule:nonzero;"/>
            <path d="M566.076,868.023L556.971,885.741C555.565,888.484 554.369,890.388 553.385,891.454C552.401,892.521 551.346,893.054 550.221,893.054C549.119,893.054 548.229,892.655 547.549,891.859C546.119,890.265 544.865,888.46 543.787,886.444L533.803,867.495C533.264,866.464 532.742,865.72 532.239,865.263C531.735,864.806 531.037,864.46 530.147,864.226C528.365,863.71 527.475,862.749 527.475,861.343C527.475,859.913 528.576,858.87 530.78,858.214C532.983,857.558 536.463,857.23 541.221,857.23C545.205,857.23 548.141,857.517 550.028,858.091C551.914,858.665 552.858,859.55 552.858,860.745C552.858,861.589 552.412,862.398 551.522,863.171C550.959,863.687 550.596,864.073 550.432,864.331C550.268,864.589 550.186,864.917 550.186,865.316C550.186,866.112 550.701,867.437 551.733,869.288C552.764,871.093 553.725,871.995 554.615,871.995C555.201,871.995 555.682,871.773 556.057,871.327C556.432,870.882 557.112,869.734 558.096,867.882C558.823,866.523 559.186,865.491 559.186,864.788C559.186,864.226 558.811,863.558 558.061,862.784C557.264,861.941 556.865,861.155 556.865,860.429C556.865,859.304 557.61,858.495 559.098,858.003C560.586,857.511 563.03,857.265 566.428,857.265C571.209,857.265 573.6,858.296 573.6,860.359C573.6,861.554 572.744,862.421 571.033,862.96C569.698,863.382 568.789,863.839 568.309,864.331C567.828,864.823 567.084,866.054 566.076,868.023Z" style="fill:rgb(238,155,0);fill-rule:nonzero;"/>
            <path d="M591.566,856.984C595.644,856.984 599.101,858.015 601.937,860.077C603.437,861.179 604.486,862.439 605.084,863.857C605.681,865.275 605.98,867.226 605.98,869.71L605.91,874.948C605.91,878.581 606.168,880.937 606.683,882.015C606.941,882.53 607.187,882.859 607.422,882.999C607.656,883.14 608.148,883.269 608.898,883.386C609.648,883.503 610.023,883.995 610.023,884.862C610.023,885.987 609.572,887.159 608.67,888.378C607.767,889.597 606.601,890.616 605.172,891.437C603.414,892.468 601.574,892.984 599.652,892.984C597.191,892.984 595.246,892.14 593.816,890.452C593.324,889.843 592.867,889.538 592.445,889.538C591.976,889.538 591.355,889.831 590.582,890.417C588.238,892.128 585.578,892.984 582.601,892.984C579.531,892.984 577.047,892.327 575.148,891.015C573.906,890.148 572.922,889.017 572.195,887.622C571.468,886.228 571.105,884.769 571.105,883.245C571.105,880.808 572.09,878.651 574.058,876.776C577.129,873.823 581.722,872.335 587.84,872.312C589.199,872.312 590.054,872.177 590.406,871.907C590.758,871.638 590.933,871.011 590.933,870.026C590.933,867.542 590.675,865.743 590.16,864.63C589.644,863.517 588.8,862.96 587.629,862.96C586.925,862.96 586.299,863.171 585.748,863.593C585.197,864.015 584.511,864.788 583.691,865.913C581.605,868.89 579.425,870.378 577.152,870.378C576.004,870.378 575.066,870.038 574.34,869.359C573.613,868.679 573.25,867.788 573.25,866.687C573.25,865.562 573.701,864.437 574.603,863.312C575.506,862.187 576.73,861.202 578.277,860.359C582.519,858.109 586.949,856.984 591.566,856.984ZM589.211,877.339C588.179,877.339 587.283,877.761 586.521,878.605C585.759,879.448 585.379,880.456 585.379,881.628C585.379,882.753 585.648,883.661 586.187,884.353C586.726,885.044 587.441,885.39 588.332,885.39C590.207,885.39 591.144,883.808 591.144,880.644C591.144,879.355 591.009,878.487 590.74,878.042C590.47,877.597 589.961,877.362 589.211,877.339Z" style="fill:rgb(238,155,0);fill-rule:nonzero;"/>
            <path d="M631.751,866.23L631.751,878.112C631.751,879.519 632.097,880.667 632.788,881.558C633.48,882.448 634.364,882.894 635.443,882.894C636.357,882.894 637.564,882.472 639.064,881.628C639.415,881.417 639.767,881.312 640.118,881.312C640.681,881.312 641.196,881.651 641.665,882.331C642.134,883.011 642.368,883.749 642.368,884.546C642.368,885.999 641.571,887.394 639.978,888.73C636.65,891.566 632.618,892.984 627.884,892.984C624.134,892.984 621.122,891.923 618.849,889.802C616.575,887.681 615.439,884.886 615.439,881.417L615.439,865.175C615.439,864.636 615.374,864.302 615.245,864.173C615.116,864.044 614.782,863.98 614.243,863.98L610.622,863.98C609.943,863.98 609.509,863.868 609.321,863.646C609.134,863.423 609.04,862.901 609.04,862.081L609.04,860.534C609.064,859.831 609.333,859.316 609.849,858.987L625.95,848.862C626.349,848.651 626.841,848.546 627.427,848.546L630.275,848.546C630.86,848.546 631.253,848.681 631.452,848.95C631.651,849.22 631.751,849.753 631.751,850.55L631.751,855.296C631.751,855.999 631.862,856.456 632.085,856.667C632.308,856.878 632.782,856.984 633.509,856.984L640.013,856.984C640.88,856.984 641.443,857.142 641.7,857.458C641.958,857.775 642.087,858.448 642.087,859.48L642.087,861.554C642.087,862.679 641.923,863.458 641.595,863.892C641.267,864.325 640.669,864.542 639.802,864.542L633.439,864.542C632.782,864.542 632.337,864.659 632.103,864.894C631.868,865.128 631.751,865.573 631.751,866.23Z" style="fill:rgb(238,155,0);fill-rule:nonzero;"/>
            <path d="M674.784,876.284L658.26,876.284C657.534,876.284 657.17,876.601 657.17,877.234C657.17,878.757 657.997,880.192 659.649,881.54C661.301,882.888 663.077,883.562 664.975,883.562C666.1,883.562 667.348,883.345 668.719,882.911C670.09,882.478 671.221,881.944 672.112,881.312C672.909,880.749 673.542,880.468 674.01,880.468C674.62,880.468 675.217,880.843 675.803,881.593C676.389,882.343 676.682,883.116 676.682,883.913C676.682,885.601 675.628,887.23 673.518,888.8C669.792,891.589 665.491,892.984 660.616,892.984C655.694,892.984 651.569,891.554 648.241,888.694C646.624,887.288 645.288,885.589 644.233,883.597C642.85,880.948 642.159,878.159 642.159,875.23C642.159,871.292 643.354,867.753 645.745,864.612C647.807,861.894 650.432,859.866 653.62,858.53C656.01,857.523 658.6,857.019 661.389,857.019C665.842,857.019 669.628,858.284 672.745,860.816C674.315,862.081 675.581,863.581 676.542,865.316C677.643,867.284 678.194,869.206 678.194,871.081C678.194,872.605 677.878,873.853 677.245,874.825C676.612,875.798 675.792,876.284 674.784,876.284ZM659.174,869.71L662.725,869.71C664.225,869.71 664.975,869.019 664.975,867.636C664.975,866.37 664.612,865.339 663.885,864.542C663.159,863.745 662.21,863.347 661.038,863.347C659.725,863.347 658.694,863.862 657.944,864.894C657.241,865.855 656.889,866.827 656.889,867.812C656.889,868.515 657.059,869.007 657.399,869.288C657.739,869.569 658.331,869.71 659.174,869.71Z" style="fill:rgb(238,155,0);fill-rule:nonzero;"/>
            <path d="M720.137,846.859L720.137,878.956C720.137,880.784 720.213,881.956 720.365,882.472C720.518,882.987 720.945,883.491 721.648,883.984C722.492,884.569 723.061,885.085 723.354,885.53C723.646,885.976 723.793,886.515 723.793,887.148C723.793,889.023 721.906,890.452 718.133,891.437C714.734,892.304 711.336,892.737 707.938,892.737C707.188,892.737 706.701,892.626 706.479,892.403C706.256,892.181 706.109,891.648 706.039,890.804C705.922,889.609 705.5,889.011 704.773,889.011C704.375,889.011 703.754,889.362 702.91,890.066C700.52,892.011 697.859,892.984 694.93,892.984C691.297,892.984 688.027,891.636 685.121,888.941C683.41,887.323 682.027,885.46 680.973,883.351C679.566,880.609 678.863,877.831 678.863,875.019C678.863,871.714 679.777,868.526 681.605,865.456C683.293,862.62 685.59,860.441 688.496,858.917C690.934,857.651 693.336,857.019 695.703,857.019C698.422,857.019 700.859,857.628 703.016,858.847C703.367,859.034 703.648,859.128 703.859,859.128C704.609,859.128 704.984,858.12 704.984,856.105C704.984,855.237 704.779,854.575 704.369,854.118C703.959,853.661 703.227,853.269 702.172,852.941C700.695,852.472 699.957,851.651 699.957,850.48C699.957,848.769 701.656,847.433 705.055,846.472C711.055,844.808 715.074,843.976 717.113,843.976C719.129,843.976 720.137,844.937 720.137,846.859ZM701.047,864.542C699.523,864.542 698.316,865.351 697.426,866.968C696.23,869.124 695.633,871.96 695.633,875.476C695.633,878.663 696.207,881.066 697.355,882.683C698.176,883.855 699.289,884.441 700.695,884.441C702.219,884.441 703.326,883.556 704.018,881.786C704.709,880.017 705.055,877.163 705.055,873.226C705.055,869.616 704.645,867.214 703.824,866.019C703.191,865.081 702.266,864.589 701.047,864.542Z" style="fill:rgb(238,155,0);fill-rule:nonzero;"/>
        </g>
        <g transform="matrix(0.595447,0,0,0.595447,22.0991,-234.243)">
            <path d="M246.976,1610.6L260.105,1631.16L527.896,1630.91L471.415,1554.37L402.547,1595.49L320.055,1593.76L277.198,1594.75L246.976,1610.6Z" style="fill:rgb(58,31,2);"/>
        </g>
    </g>
</svg>
